<?xml version="1.0" encoding="UTF-8"?><svg id="Layer_1" xmlns="http://www.w3.org/2000/svg" viewBox="0 0 447.25 510.49"><defs><style>.cls-1{fill:none;}.cls-2{fill:#f26e26;}.cls-3{fill:#fff0e8;}.cls-4{fill:#c35628;}.cls-5{fill:#6671aa;}.cls-6{fill:#c64d3b;}.cls-7{fill:#10143c;}.cls-8{fill:#9d2b8c;}.cls-9{fill:#732a84;}.cls-10{fill:#283993;}.cls-11{fill:#7983bf;}</style></defs><g><path class="cls-8" d="M394.11,231.59c14.47-80.33-3.11-218.46-132.95-215.28-62.63,6.16-100.73,47.09-111.19,95.36-29.61-4.81-60.43,.87-86.48,18.62C7.39,168.52-5.29,247.63,35.17,307c53.9,79.08,239.74,74.43,321.09,85.49,2.54,.35,34.86-144.33,37.85-160.91Z"/><g><ellipse class="cls-10" cx="207.36" cy="262.92" rx="35.94" ry="35.3"/><path class="cls-10" d="M329.38,226.31c-48.63-6.71-99.48,76.45-99.48,76.45,0,0-1.45-7.25-4.79-17.64-18.06,35.72-28.44,77.39-28.44,121.9,0,33.46,5.87,65.32,16.45,94.25,12.76-.77,23.46-8.32,30.18-24.73,35.4-86.35,213.29-126.94,190.84-191.7-22.45-64.76-104.76-58.52-104.76-58.52Z"/><path class="cls-4" d="M196.67,407.02c0-44.51,10.38-86.18,28.44-121.9-18.08-1.8-31.68-8.28-68.59-47.78-35.61-38.11-73.05,41.51-75.13,75.13-5.19,84.1,80.18,191.9,131.73,188.8-10.58-28.93-16.45-60.78-16.45-94.25Z"/><g><g><path class="cls-10" d="M333.7,306.54c.96-14.22,27.71-17.95,32.34-31.18,1.89-5.4,2.9-10.91,2.02-16.67-.56-3.66-1.84-7.03-3.66-10.1-.11-.19-.23-.38-.34-.56-6.04-9.68-17.53-16.32-28.79-19.99-1.95-.63-3.9-1.21-5.88-1.73-1.39-.37-2.79-.71-4.2-1.02-15.22-3.39-31.16-3.55-46.45-.5-5.56,1.11-11.03,2.64-16.36,4.59-15.88,5.83-27.6,19.71-30.4,36.43-3.5,20.84,11.47,32.36,13.74,51.22,.93,7.73,1.52,7.8,.71,15.56,.72,1.81,2.75,26.43,3.53,28.22,2.87,6.57,5.34-2.2,11.1,2.14,3.07,2.31,6.49,3.57,10.08,4.85,1.14,.4,2.27,.81,3.4,1.22,1.76,.48,3.53,.91,5.32,1.27,1.41,.28,2.84,.53,4.26,.73,.05,0,.38,.05,.51,.07,.05,0,.1,.01,.11,.01,.34,.04,.67,.08,1.01,.12,.73,.08,1.45,.16,2.18,.23,5.86,.53,11.76,.5,17.62,.01,1.47-.12,2.94-.27,4.41-.45,.41-.05,.81-.1,1.22-.15h.09c.15-.04,.3-.06,.46-.08,.71-.1,1.42-.21,2.14-.32,3.07-.49,6.12-1.1,9.14-1.81,6-1.41-27.52-33.74-21.75-35.92"/><path class="cls-1" d="M211.8,432.13l35.64,17.88c-27.28-10.65-56.71-15.78-85.99-14.98"/><path class="cls-1" d="M209.68,244.82c6.32-1.61,12.9-3.09,19.3-1.87,6.98,1.33,13.17,5.92,16.89,11.98,3.72,6.05,5.04,13.44,4.14,20.49"/><path class="cls-11" d="M339.47,324.92c-11.25-8.42-21.91,1.83-21.91,1.83l-26.7,32.73c-1.8,1.33-5.87,4.03-9.69,5.24-2.92,.92-4.52,.61-7.24,2.05-.14,.07-.29,.15-.42,.23-2.53,1.38-4.83,3.03-6.53,5.35-.81,1.1-1.44,2.31-2.15,3.48-1.52,2.51-3.38,4.81-5.36,6.97-.71,.78-1.49,1.7-1.31,2.74,4.22-1.27,7.08-4.84,10.21-8.07-2.34,5.62-2.36,12.18-5.38,17.51-.9,1.59-2.01,3.77-.66,5.01,1.11,1.03,2.74,.34,4.07-.37-.36,.49,.12,1.23,.72,1.35,.6,.12,1.19-.18,1.72-.48,2.27-1.28,4.44-2.86,5.9-5.02,1.12-1.65,1.77-3.56,2.78-5.28,.77-1.31,2.07-2.43,3.26-3.42l.28,.04c-.74,3.21-1.68,6.38-2.82,9.48-.25,.68-.51,1.45-.19,2.11,.4,.81,1.55,1,2.37,.61,.82-.39,1.36-1.17,1.83-1.94,1.08-1.77,1.96-3.66,2.63-5.63,.27-.81,.52-1.64,.97-2.36,.33-.53,.77-.98,1.21-1.41,3.29-3.23,8.94-5.45,9.4-10.04,3.54-35.69,36.35-38.39,36.35-38.39,10.94-.86,17.9-5.9,6.65-14.32Z"/><g><path class="cls-7" d="M218.12,246.93l-67.13-88.15c-3.68-4.87-11.64-2.19-11.55,3.98,0,.16,1.09,86.82,1.09,87,.43,8.62,12.78,8.41,12.98-.16,0,0-15.11-65.84-.86-68.83,14.25-2.99,60.01,70.57,60.01,70.57,1.2,1.41,3.31,1.65,4.8,.52,1.54-1.17,1.84-3.37,.67-4.92Z"/><g><path class="cls-6" d="M238.76,306.56c-1.88,2.98-5.83,3.88-8.81,2-2.98-1.88-3.88-5.83-2-8.81,1.88-2.98,5.83-3.88,8.81-2,2.98,1.88,3.88,5.83,2,8.81Z"/><path class="cls-2" d="M246.85,215.9c-1.98,10.97-12.48,18.25-23.45,16.27-10.97-1.98-18.25-12.48-16.27-23.45,1.98-10.97,12.48-18.25,23.45-16.27,10.97,1.98,18.25,12.48,16.27,23.45Z"/><path class="cls-2" d="M284.4,236.09c-2.62,14.51-16.51,24.14-31.02,21.52-14.51-2.62-24.14-16.51-21.52-31.02,2.63-14.51,16.51-24.14,31.02-21.52,14.51,2.62,24.14,16.51,21.52,31.02Z"/><path class="cls-2" d="M276.2,279.37c-1.98,10.97-12.48,18.25-23.45,16.27-10.97-1.98-18.25-12.48-16.27-23.45,1.98-10.97,12.48-18.25,23.45-16.27,10.97,1.98,18.25,12.48,16.27,23.45Z"/><path class="cls-2" d="M249.76,306.36c-1.98,10.97-12.48,18.25-23.45,16.27-10.97-1.98-18.25-12.48-16.27-23.45,1.98-10.97,12.48-18.25,23.45-16.27,10.97,1.98,18.25,12.48,16.27,23.45Z"/></g></g></g><g><path class="cls-7" d="M240.01,186.4c-1.33,.18-2.76,1.02-4.19,2.7-5.92,6.96,13.47-9.65,4.61-5.3-3.85,1.89-7.52-.42-7.48-5.47,.04-5.04-7.39,4.2-4.61,.58,2.06-2.68-.08,1.22-1.44-2.3-1.51-3.91-9.55,5.73-12.65,8.41-3.11,2.69-43.86,1.13-30.29-33.46,8.14-20.75,76.46-16.05,56.55-52.03-14.67-26.51,11.69-34.64,30.23-30.35,4.83,1.12,6.9,5.72,12.38,4.59,6.77-1.4,9.63-6.25,11.79-12.31,2.74-7.73,7.22-15.91,15.48-18.65,10.96-3.63,22.9,9.25,14.84,19.33-3.71,4.64-9.81,6.36-14.94,8.9-2.25,1.11-12.05,5.65-6.61,9.02,1.96,1.22,5.33,.04,7.43-.19,7.67-.84,21.02,.05,22.72,10,1.37,8-9.54,12.46-14.58,16.46-4.75,3.77,1.8,7.62,5.03,9.89,3.85,2.7,7.86,5.21,11.58,8.08,2.52,1.95,6.63,6.12,6.25,9.73-.83,8.07-12.06,5.03-15.81,13.16-3.75,8.13,12.71,29.52-7.71,22.23-5.55-1.98-11.39-6.24-16.11-1.73-6.02,5.74,1.47,18.08,3.43,24.15,2.12,6.53,1.72,17.81-6.26,20.34-9.63,3.05-12.16-9.67-15-15.58-2.48-5.16-9.47-10.1-15.11-6.38-5.55,3.66-3.87,12.72-3.99,18.32-.17,7.75,5.23-2.51-1.24,2.32-5.15,3.84,.93-11.44-3.45-18.13-6.62-10.1-15.17,12.76-14.96,2.16,.1-5.17-2.53-8.95-5.89-8.49Z"/><path class="cls-9" d="M185.1,84.21c9.11-10.31,24.86-11.29,35.18-2.18,10.31,9.11,11.29,24.87,2.18,35.18-9.11,10.31-24.87,11.29-35.18,2.17-10.31-9.11-11.29-24.86-2.18-35.18Z"/></g><path class="cls-11" d="M278.9,245.6c-.13,.08,14.19,5.08,23.81,.9,9.06-3.93,7.82-17.96,7.69-17.97-4.11-.22-19.47-4.69-22.78-28.27l-7.07-18.85-9.42,36.91s11.25-2.71,12.57,6.28c1.11,7.55-3.19,19.94-4.8,21Z"/><path class="cls-11" d="M251.9,162.79c-11.31,1.54-28.25,17.16-16.54,35.12,2.67,4.09,7.41,15.37,12.03,20.16,2.55,2.64,5.03-3.14,6.81-3.1,3.51,.08,12.35,11.79,15.52,9.69,17.69-11.74,22.81-23.39,13.24-43.98-5.91-12.71-19.2-19.51-31.06-17.89Z"/><circle class="cls-5" cx="272.96" cy="201.49" r="7.32"/><path class="cls-7" d="M202.82,185.39c12.47,3.21,58.29-7.03,62.26-6.71,19.78,1.59,22.97,17.43,22.71,17.56l2.36-52.68-60.25,13.18-7.18,10.16-19.9,18.5Z"/><path class="cls-7" d="M204.33,241.4c4.65-6.79,17.48-12.88,27.98-7.99,3.5,1.63,6.74,4.48,9.33,8.93,2.37,4.06,10.01,13,12.13,19.03,1.17,3.33-4.87,2.97-5.6,4.51-1.44,3.05,4.8,15.7,1.62,17.52-17.72,10.13-29.94,9.51-43.5-7.6-8.37-10.56-8.48-24.91-1.96-34.41Z"/><circle class="cls-5" cx="228.5" cy="276.19" r="7.04"/><path class="cls-2" d="M235.93,228.79s5.24,11-13.61,25.66c-18.85,14.66-20.42,18.85-20.42,18.85,0,0-3.58-5.77-3.93-16.49-.35-10.73,.08-27.99,7.07-29.32,6.99-1.33,8.09-16.31,22.37-7.24s8.52,8.55,8.52,8.55Z"/><path class="cls-11" d="M236.92,219.82c.94-.79,1.96-1.8,1.55-2.95-.5-1.39-2.46-1.24-3.92-1.05-4.89,.63-9.76-1.38-14.66-1.35,3.37-1.36,6.91-2.41,9.18-5.2-.71-.46-1.64-.16-2.44,.14-2.23,.82-4.51,1.51-6.84,1.88-1.09,.17-2.18,.28-3.25,.54-2.25,.56-4.19,1.79-6.01,3.27-.11,.08-.21,.16-.31,.25-1.47,1.22-2.86,2.59-4.27,3.9-4.03,3.29-13.39,11.44-13.85,11.8,1.77,4.09,2.41,6.68,6.3,8.84,2.44-1.5,4.97-6.08,8.02-4.87,1.33,.72,3.11,.81,4.78,.65,3.69-.35,6.96-2.5,10.38-3.98,.46-.2,.93-.39,1.42-.48,.68-.12,1.37-.05,2.05,0,1.67,.1,3.34,.02,4.99-.25,.72-.12,1.47-.29,2.01-.78,.54-.5,.77-1.42,.29-1.97-.38-.44-1.04-.49-1.62-.51-2.65-.1-5.29-.37-7.9-.8l.06-.22c1.11-.59,2.35-1.22,3.56-1.4,1.59-.23,3.21-.14,4.78-.47,2.05-.43,3.9-1.58,5.56-2.89,.39-.31,.79-.66,.89-1.15,.1-.48-.3-1.08-.77-.96Z"/><path class="cls-7" d="M203.63,270.71s-2.21,2.9-11.27,1.17,9.5,17.7,13.38,17.7,.43-14.68,9.07-14.25-11.18-4.63-11.18-4.63Z"/></g></g></g><g><path class="cls-3" d="M166.29,342.46c-.14,3.33-.28,6.08-.37,8.82-.04,1.15-.05,2.31,.02,3.45,.19,3.25,1.56,5.48,4.72,6.74,2.63,1.05,4.96,2.84,7.52,4.1,5.45,2.67,10.9,5.34,16.45,7.76,7.38,3.22,14.87,6.19,22.31,9.27,3.19,1.32,4,2.81,2.52,5.96-1.22,2.6-2.63,5.31-4.59,7.31-11.65,11.86-23.06,23.98-35.61,34.87-3.69,3.2-7.55,6.21-11.36,9.26-1.97,1.58-3.35,1.54-5.47,.28-7.09-4.2-14.19-8.41-21.34-12.52-14.65-8.4-29.35-16.73-44.02-25.1-1.7-.97-3.36-2-5.03-3.02-1.48-.91-2.46-2.24-2.33-4.02,.43-5.86-1.09-11.42-2.24-17.05-2.27-11.06-3.66-22.26-4.84-33.49-.83-7.89-1.62-15.77-2.52-23.65-.23-2.03,.36-3.57,2.06-4.44,2.5-1.28,5.01-2.68,7.67-3.45,17.86-5.2,35.76-10.25,53.65-15.34,4.28-1.22,8.56-2.44,12.85-3.66,.29-.08,.59-.12,.89-.15,3.57-.36,4.44,.12,5,3.73,.74,4.71,1.22,9.47,1.72,14.22,.63,5.98,1.24,11.97,1.72,17.97,.34,4.24,.43,8.49,.6,12.16Zm-72.27,51.04c.78,1.84,2.22,2.62,3.66,3.46,4.28,2.48,8.68,4.79,12.77,7.58,10.73,7.31,21.85,13.92,33.46,19.62,5.34,2.62,10.48,5.56,15.38,8.97,1.04,.72,2.33,1.25,3.56,1.43,3.47,.51,6.32-1,8.73-3.43,8.02-8.11,15.48-16.76,24.18-24.21,7.47-6.4,14.2-13.71,21.25-20.64,1-.98,.9-1.51-.46-2.14-7-3.23-14.01-6.44-21.03-9.62-5.44-2.47-10.94-4.82-16.35-7.36-4.31-2.02-8.52-4.27-12.79-6.37-1.18-.58-1.63-1.43-1.52-2.76,.12-1.43-.28-1.7-1.56-1.18-.36,.14-.7,.34-1.05,.52-4.35,2.16-8.62,4.54-13.08,6.42-10.47,4.42-20.79,9.14-30.59,14.98-6.95,4.14-13.82,8.4-20.73,12.59-1.22,.74-2.49,1.4-3.83,2.15Zm71.21-51.23h-.27c0-2.13,.14-4.27-.02-6.38-.81-10.11-1.64-20.22-2.61-30.32-.26-2.75-1.01-5.45-1.61-8.16-.26-1.21-1.18-1.79-2.33-1.67-1.84,.19-3.72,.35-5.48,.88-3.56,1.07-7,2.59-10.58,3.56-7.22,1.95-14.56,3.47-21.74,5.53-10.1,2.9-20.13,6.05-30.14,9.27-2.48,.8-4.78,2.21-7.12,3.44-1.3,.68-1.71,1.94-1.56,3.38,.93,8.99,1.84,17.98,2.84,26.96,.54,4.84,1.24,9.65,1.91,14.47,.57,4.12,1.02,8.26,1.83,12.33,.95,4.77,2.24,9.47,3.39,14.19,.51,2.08,1.2,2.45,3.04,1.43,3.08-1.71,6.15-3.42,9.16-5.25,10.17-6.19,20.32-12.4,31.16-17.33,9.27-4.22,18.49-8.58,27.76-12.82,1.38-.63,1.96-1.5,2-3.02,.08-3.5,.26-7,.4-10.49Zm51.54,46.3c-1.9,1.64-3.65,3-5.23,4.55-11.07,10.87-22.1,21.78-33.15,32.67-3.75,3.69-6.95,8.04-11.8,10.45-.47,.23-.91,.74-1.11,1.24-.14,.35,.06,.92,.26,1.31,.08,.15,.66,.21,.87,.07,1.92-1.26,3.96-2.4,5.69-3.91,5.3-4.61,10.57-9.26,15.67-14.11,5.98-5.69,11.8-11.55,17.6-17.44,3.28-3.33,6.41-6.8,9.52-10.29,1.02-1.14,1.69-2.56,1.68-4.55Zm-125,6.48c-.03,.57,0,1-.07,1.41-.17,.98,.27,1.59,1.06,2.06,1.57,.93,3.1,1.92,4.68,2.83,4.82,2.78,9.62,5.58,14.47,8.29,9.39,5.23,18.37,11.19,28.01,16.02,6.79,3.4,13.08,7.86,19.63,11.79,1.41,.85,2.96,1.47,4.57,2.25,.02-1.96-.18-2.5-1.54-3.28-8.13-4.65-16.27-9.29-24.44-13.88-4.8-2.7-9.74-5.13-14.46-7.97-7.71-4.63-15.26-9.52-22.92-14.25-2.91-1.8-5.91-3.46-9.01-5.26Z"/><path class="cls-3" d="M188.37,375.28c-.73,.53-1.26,.83-1.68,1.23-9.52,9.18-20.8,15.93-31.14,23.99-5.57,4.34-11.41,8.3-17.11,12.46-1.16,.84-2.28,.94-3.5,.23-5.25-3.07-10.46-6.18-15.76-9.15-1.96-1.1-4.13-1.78-6.15-2.77-1.94-.95-3.82-2.03-5.7-3.1-.25-.14-.46-.54-.49-.84-.02-.18,.32-.55,.54-.58,5.34-.9,9.36-4.43,13.61-7.38,6.39-4.45,12.51-9.31,18.9-13.78,3.7-2.59,7.72-4.68,11.54-7.09,2.53-1.6,5.04-3.25,7.39-5.1,2.71-2.12,3.86-2.16,6.7-.22,2.03,1.38,4.28,2.45,6.46,3.59,4.95,2.58,9.92,5.11,14.88,7.67,.41,.21,.81,.46,1.5,.87Zm-52.12,36.85c1.12-.51,2.32-.84,3.27-1.52,8.18-5.94,16.36-11.89,24.45-17.95,7.08-5.31,14.04-10.78,21.06-16.16,.85-.65,.64-1.19-.1-1.61-1.2-.69-2.45-1.3-3.69-1.91-5.26-2.57-10.5-5.17-15.79-7.67-1.87-.88-3.9-1.39-5.85-.17-8.73,5.48-17.57,10.79-26.11,16.56-6.74,4.54-12.78,10.14-20.11,13.79-.83,.42-1.58,1.1-2.24,1.79-.83,.87-.56,1.5,.54,1.96,2.46,1.05,4.99,2.02,7.31,3.34,4.65,2.64,9.16,5.52,13.77,8.23,1.02,.6,2.23,.87,3.5,1.35Z"/><path class="cls-3" d="M181.3,411.45c-.48-.16-.85-.28-1.21-.42-4.71-1.86-9.43-3.73-14.14-5.61-2.09-.83-2.51-2.39-1.13-4.26,.36-.49,.82-.91,1.29-1.3,4.42-3.69,8.88-7.34,13.27-11.07,1.71-1.46,3.29-1.87,5.4-.69,2.53,1.41,5.3,2.37,7.92,3.63,1.52,.73,2.98,1.61,4.4,2.53,1.69,1.09,1.71,1.97,.24,3.31-4.44,4.02-8.87,8.04-13.31,12.05-.45,.41-.9,.84-1.4,1.18-.42,.28-.92,.44-1.33,.63Zm-.63-1.79c.6-.25,1.3-.46,1.93-.82,.56-.32,1.05-.78,1.53-1.22,4.03-3.67,8.05-7.36,12.08-11.03,.84-.77,.54-1.3-.32-1.67-4.27-1.81-8.53-3.64-12.83-5.36-.57-.23-1.54-.07-2.04,.3-4.86,3.68-9.69,7.41-14.46,11.21-1.81,1.44-1.58,2.68,.59,3.57,3.56,1.47,7.16,2.84,10.76,4.21,.84,.32,1.74,.5,2.76,.79Z"/><path class="cls-3" d="M155.91,310.5c.59,3.8,1.22,7.59,1.76,11.4,.91,6.44,1.86,12.87,2.58,19.34,.24,2.17-.04,4.42-.26,6.61-.26,2.64-1.76,4.42-4.08,5.57-10.26,5.09-20.51,10.21-30.76,15.32-8.72,4.35-17.46,8.68-26.17,13.04-3,1.5-3.15,1.41-3.72-1.93-.99-5.78-2.1-11.54-3.09-17.33-1.39-8.11-2.67-16.24-4.08-24.34-.65-3.75-1.6-7.44-2.17-11.2-.29-1.93-.1-3.95,.05-5.92,.03-.44,.77-1.16,1.21-1.19,8.64-.52,16.74-3.43,24.92-5.93,6.74-2.06,13.38-4.47,20.18-6.29,5.74-1.53,10.88-4.48,16.39-6.5,.69-.25,1.37-.55,2.08-.73,2.61-.66,4.05,.22,4.68,2.92,.27,1.16,.45,2.35,.57,3.54,.13,1.18,.14,2.38,.2,3.57l-.31,.04Zm3.1,29.01c-.2-1.87-.36-3.95-.65-6-1.26-8.8-3.13-17.51-3.45-26.44-.04-1.05-.24-2.12-.51-3.14-.49-1.89-1.53-2.51-3.4-2.08-.67,.15-1.33,.39-1.97,.64-4.38,1.75-8.7,3.68-13.15,5.22-6.41,2.22-12.9,4.21-19.39,6.18-6.7,2.04-13.43,3.98-20.17,5.88-2.24,.63-4.58,.9-6.84,1.49-2.07,.53-2.65,1.52-2.47,3.7,.04,.44,.1,.88,.18,1.32,2.12,12.25,4.22,24.5,6.39,36.74,.9,5.09,1.97,10.15,3,15.21,.44,2.18,1.1,2.5,3.1,1.53,7.8-3.76,15.6-7.53,23.38-11.34,6.54-3.2,13.06-6.46,19.58-9.71,3.88-1.94,7.79-3.83,11.6-5.9,2.27-1.23,3.82-3.19,4.11-5.93,.25-2.38,.44-4.76,.67-7.36Z"/><path class="cls-3" d="M118.54,395.99c.5-.76,.69-1.39,1.11-1.66,1.5-.96,3.01-1.91,4.62-2.64,2.15-.97,4.09-2.17,5.91-3.73,2.78-2.38,5.68-4.66,8.76-6.59,1.47-.92,2.8-1.99,4.21-2.96,1.3-.9,2.81-1.47,4.43-2.28,.01-2.15,1.67-3.36,3.51-4.49,1.25-.77,2.41-1.72,3.59-2.61,.84-.63,1.51-1.47,2.84-1.09,.48,.14,1.31-.54,1.82-1.03,1.98-1.91,2.25-1.94,4.54-.41,2.25,1.5,4.29,3.22,6.2,5.18,1.28,1.31,3.19,2.01,4.87,2.86,1.93,.97,2.3,2.18,1.32,4.18-1.82,3.69-4.97,6.05-7.96,8.57-5.6,4.72-11.92,8.31-18.09,12.13-4.13,2.56-8.11,5.4-12.1,8.2-.75,.53-1.34,1.36-1.86,2.16-.46,.7-.85,.82-1.59,.44-1.72-.9-3.52-1.64-5.22-2.58-2.46-1.36-4.85-2.86-7.28-4.27-2.21-1.28-4.44-2.52-6.63-3.82-.32-.19-.75-.67-.7-.94,.09-.51,.37-1.17,.77-1.39,1.02-.56,2.14-.9,2.93-1.22Zm23.34,.44c.35-.16,1.05-.39,1.66-.77,.77-.48,1.44-1.13,2.19-1.64,3.83-2.64,7.67-5.27,11.52-7.87,.71-.48,1.12-1,.6-1.84-.46-.74-.73-1.95-1.93-1.47-1.84,.73-3.82,1.36-5.36,2.55-3.57,2.78-6.88,5.91-11.09,7.74-.31,.14-.63,.87-.55,1.24,.23,1.12,1.51,2.05,2.95,2.08Zm12.73-15.16c1.07-.75,2.06-1.35,2.94-2.08,1.31-1.08,2.46-2.36,3.82-3.35,1.72-1.26,3.56-2.35,5.37-3.47,.65-.4,1.22-.72,.59-1.61-.78-1.11-2-1.68-2.54-1.03-1.95,2.35-4.7,3.37-7.22,4.8-1.78,1.01-3.35,2.43-4.98,3.72-.24,.19-.48,.86-.38,.96,.69,.69,1.47,1.28,2.4,2.05Zm4.93,5.38c.43,.47,1.11,1.14,1.69,1.89,.68,.87,1.38,.94,2.22,.29,2.63-2.07,5.31-4.07,7.87-6.22,1.54-1.3,1.29-2.38-.5-3.33-.95-.5-1.66-.02-2.36,.52-2.95,2.26-5.89,4.53-8.92,6.86Zm-23.41,14.51c-.53-.51-.86-.85-1.21-1.16-2.1-1.87-2.58-1.85-4.73-.05-1.13,.94-2.27,1.88-3.5,2.68-1.25,.82-1.42,1.52-.21,2.37,.47,.33,1.31,.43,1.86,.25,1.06-.34,2.05-.92,3.03-1.45,1.54-.83,3.06-1.7,4.74-2.64Zm21.92-13.87c-.8,.33-1.3,.49-1.75,.73-2.44,1.26-2.64,2.19-.81,4.25,.35,.39,1.04,.86,1.43,.75,1.06-.3,2.15-.75,3.01-1.42,.48-.37,.95-1.64,.72-1.94-.72-.95-1.77-1.64-2.6-2.36Zm-9.58,6.72c-.07,2.2,1.38,3.25,3.08,2.5,.63-.28,1.23-.64,1.84-.97,2.14-1.13,1.64-2.18,.31-3.56-.76-.79-1.58-1-2.53-.31-.7,.51-1.45,.95-2.12,1.5-.31,.25-.47,.67-.58,.83Zm2.27-13.88c-1.81,.08-2.93,.92-3.94,1.99-.63,.67-1.04,1.29-.26,2.14,.74,.81,1.4,1.57,2.6,.69,.94-.68,1.99-1.2,2.96-1.83,.4-.26,1.04-.62,1.03-.92-.01-.47-.38-1.07-.77-1.37-.53-.4-1.23-.55-1.62-.71Zm-12.71,25.4c1.15-.01,4.35-1.92,4.24-2.82-.11-.88-1.04-1.65-1.62-2.46-.02-.03-.07-.06-.1-.09-.6-.56-1.03-.45-1.61,.17-.78,.83-1.75,1.47-2.63,2.21-.21,.18-.51,.41-.54,.64-.09,.86,1.38,2.36,2.26,2.35Zm5.5-4.08c1.1-.62,2.12-1.16,3.11-1.76,.58-.35,1.18-.73,1.64-1.23,.21-.22,.26-.87,.09-1.14-1.17-1.91-1.91-2.02-3.7-.69-.35,.26-.69,.52-1.03,.8-2.24,1.84-2.24,1.98-.12,4.02Zm21.16-20.4c.66-.47,1.67-.82,1.89-1.45,.23-.65-.11-1.73-.55-2.36-.43-.63-1.27-1.22-1.98-1.3-.73-.08-1.67,.32-2.23,.84-.37,.34-.44,1.31-.3,1.91,.27,1.15,1.83,2.13,3.17,2.37Zm-21.25,7.87c1.85-.03,2.93-.88,2.92-2.28-.02-1.5-1.26-3-2.44-2.95-.82,.03-2.67,2.07-2.68,2.94,0,1.21,1.05,2.31,2.2,2.29Zm-5.78,3.1c1.38,.03,3.8-1.3,3.76-2.06-.07-1.23-1.24-2.84-2.09-2.86-1.71-.05-3.37,1.37-3.44,2.95-.05,1.17,.65,1.96,1.77,1.98Zm30.78-14.44c1.21-.01,2.85-1.57,2.84-2.7,0-.78-1.62-1.89-2.71-1.86-1.53,.05-2.8,.98-2.77,2.05,.03,1.12,1.5,2.52,2.64,2.51Zm-44.62,20.54c-1.57-.02-2.87,.94-2.84,2.09,.03,.99,1.65,2.1,3.09,2.11,1.25,0,2.51-.87,2.56-1.78,.06-1.13-1.41-2.39-2.81-2.42Zm32-24.35c.76-.31,1.57-.52,2.24-.95,1.08-.68,1.1-1.48,.19-2.36-1.38-1.35-2.99-1.17-4.46,.49-.76,.86-.7,1.59,.28,2.16,.51,.3,1.11,.43,1.75,.66Zm-24.01,23.55c-1.59-2.4-2.01-2.57-4.16-1.92-1.23,.37-1.88,1.2-1.69,2.14,.23,1.12,1.43,1.93,2.63,1.51,1.1-.39,2.09-1.11,3.22-1.74Zm28.47-13.25c1.39,.01,2.48-.73,2.52-1.73,.05-1.06-1.85-3.14-2.94-2.83-.79,.22-1.77,1.22-1.94,2.03-.28,1.37,1.02,2.52,2.35,2.53Zm-23.28,15.39c1.51,0,3.13-1.02,2.9-1.82-.2-.7-.83-1.39-1.45-1.82-.7-.49-1.61-1.17-2.48-.4-.63,.57-1.49,1.18-1.08,2.33,.4,1.14,1.2,1.68,2.11,1.71Zm10.42-22.73c-1.07,.9-2.14,1.72-3.09,2.66-.35,.35-.73,1.11-.58,1.46,.32,.77,1.11,.99,1.86,.54,1.21-.73,2.39-1.53,3.73-2.41l-1.92-2.24Zm-9.97,9.86l-.16-.58c-.52-.2-1.2-.71-1.54-.54-1.28,.65-2.54,1.43-3.64,2.36-.77,.65-.54,1.56,.44,1.75,.66,.13,1.53-.11,2.1-.51,1.02-.7,1.88-1.64,2.8-2.48Zm-4.55,8.93c.97-.62,1.91-1.01,2.55-1.68,.79-.83,.28-1.74-.42-2.42-.69-.66-1.35-.34-1.92,.25-.39,.4-.78,.82-1.12,1.27-.3,.4-.83,1.08-.71,1.25,.34,.5,.95,.82,1.61,1.33Zm16.06-19.26l-.27,.34c.5,.31,.97,.79,1.5,.88,1.19,.2,3.13-1.24,3.43-2.41,.06-.23,.03-.55-.08-.75-.63-1.13-2.43-1.16-3.17-.08-.46,.68-.94,1.35-1.41,2.02Zm-18.63,13.76c-1.17,.54-2.21,.95-3.19,1.48-.53,.29-1.38,.72-.78,1.47,.41,.51,1.34,1.03,1.88,.89,1-.26,1.93-.93,2.79-1.56,.29-.21,.49-.9,.37-1.23-.14-.41-.66-.67-1.07-1.04Zm.43,15.99c1.24,.82,2.18,1.63,3.27,2.09,.5,.21,1.41-.07,1.9-.45,.68-.52,.36-1.22-.15-1.83-1.42-1.69-1.41-1.7-3.43-.65-.46,.24-.91,.48-1.59,.84Zm8-20.6c1.89-.13,2.93-1.08,3.73-2.33,.21-.33,.29-1.1,.11-1.26-.32-.27-1-.42-1.35-.25-1.02,.53-2,1.19-2.91,1.9-.3,.24-.58,.89-.46,1.2,.14,.38,.7,.6,.89,.73Zm34.54-5.99c.96,0,1.95-1.11,1.97-2.25,.02-.98-.65-1.52-1.39-1.26-1.02,.37-2.05,.98-2.81,1.76-.39,.4,1.24,1.73,2.23,1.74Zm-12.42-8.59c1.03,.01,2.95-1.73,2.56-2.5-.29-.58-1.4-1.09-2.05-1-.63,.09-1.28,.92-1.67,1.58-.6,1.03,0,1.91,1.17,1.93Zm-36.9,22.4c-.87,.58-1.7,1.07-2.46,1.66-.6,.46-.41,.95,.13,1.39,.89,.73,2.13,.49,3.23-.77,.3-.34,.56-.99,.44-1.35-.12-.36-.75-.54-1.34-.92Zm-6.79,5.34c.63,.27,1.3,.78,1.93,.73,.49-.04,1.32-.81,1.3-1.21-.03-.62-.67-1.2-1-1.71l-2.23,2.19Z"/></g></svg>