<?xml version="1.0" encoding="UTF-8"?><svg id="Layer_1" xmlns="http://www.w3.org/2000/svg" viewBox="0 0 511.4 424.7"><defs><style>.cls-1{fill:none;}.cls-2{fill:#f26e26;}.cls-3{fill:#ed2524;}.cls-4{fill:#fff0e8;}.cls-5{fill:#6671aa;}.cls-6{fill:#10143c;}.cls-7{fill:#732a84;}.cls-8{fill:#283993;}.cls-9{fill:#7983bf;}</style></defs><g><ellipse class="cls-8" cx="271.04" cy="76.78" rx="27.38" ry="26.89"/><path class="cls-8" d="M423.36,128.05c-37.05-5.11-75.78,58.24-75.78,58.24,0,0-1.1-5.52-3.65-13.44-13.76,27.21-21.66,58.95-21.66,92.86,0,25.49,4.47,49.76,12.53,71.8,9.72-.58,17.87-6.34,22.99-18.84,26.97-65.78,162.48-96.7,145.38-146.04-17.1-49.34-79.81-44.58-79.81-44.58Z"/><g><g><path class="cls-8" d="M426.66,189.17c.73-10.84,21.11-13.67,24.64-23.75,1.44-4.11,2.21-8.31,1.54-12.7-.42-2.79-1.4-5.36-2.79-7.69-.08-.15-.17-.29-.26-.43-4.6-7.37-13.36-12.43-21.93-15.23-1.48-.48-2.97-.92-4.48-1.32-1.06-.28-2.13-.54-3.2-.78-11.6-2.58-23.74-2.7-35.39-.38-4.23,.85-8.41,2.01-12.46,3.5-12.1,4.44-21.02,15.01-23.16,27.75-2.66,15.88,8.74,24.65,10.46,39.02,.71,5.89,1.16,5.94,.54,11.85,.55,1.38,2.09,20.13,2.69,21.5,2.19,5.01,4.07-1.67,8.46,1.63,2.34,1.76,4.94,2.72,7.68,3.69,.87,.31,1.73,.61,2.59,.93,1.34,.37,2.69,.69,4.05,.96,1.08,.22,2.16,.4,3.25,.56,.04,0,.29,.04,.39,.05h.08c.26,.04,.51,.07,.77,.1,.55,.06,1.11,.12,1.66,.17,4.46,.41,8.96,.38,13.42,.01,1.12-.09,2.24-.21,3.36-.34,.31-.04,.62-.08,.93-.12h.07c.12-.03,.23-.04,.35-.06,.54-.08,1.09-.16,1.63-.25,2.34-.38,4.66-.84,6.96-1.38,4.57-1.07-20.96-25.7-16.57-27.37"/><path class="cls-1" d="M333.8,284.84l27.15,13.62c-20.78-8.11-43.2-12.02-65.5-11.41"/><path class="cls-1" d="M332.18,142.15c4.81-1.23,9.83-2.35,14.7-1.42,5.32,1.01,10.03,4.51,12.87,9.12,2.84,4.61,3.84,10.24,3.16,15.61"/></g><path class="cls-9" d="M384.91,142.74c-.1,.06,10.81,3.87,18.14,.69,6.9-2.99,5.96-13.68,5.86-13.69-3.13-.17-14.83-3.57-17.35-21.54l-5.38-14.36-7.18,28.12s8.57-2.06,9.57,4.79c.84,5.75-2.43,15.19-3.66,15.99Z"/><path class="cls-9" d="M293.56,43.95c.72-.6,1.5-1.37,1.18-2.25-.38-1.06-1.87-.94-2.99-.8-3.73,.48-7.44-1.05-11.17-1.03,2.57-1.04,5.27-1.84,6.99-3.96-.54-.35-1.25-.12-1.86,.11-1.7,.63-3.43,1.15-5.21,1.43-.83,.13-1.66,.21-2.48,.41-1.72,.43-3.19,1.36-4.58,2.49-.08,.06-.16,.12-.23,.19-1.12,.93-2.18,1.97-3.25,2.97-3.07,2.51-10.2,8.72-10.55,8.99,1.35,3.12,1.83,5.09,4.8,6.74,1.86-1.14,3.79-4.63,6.11-3.71,1.01,.55,2.37,.62,3.64,.5,2.81-.26,5.3-1.91,7.91-3.03,.35-.15,.71-.3,1.09-.36,.52-.09,1.04-.04,1.56,0,1.27,.08,2.55,.02,3.8-.19,.55-.09,1.12-.22,1.53-.6,.41-.38,.58-1.08,.22-1.5-.29-.34-.79-.37-1.23-.39-2.02-.07-4.03-.28-6.02-.61l.05-.17c.85-.45,1.79-.93,2.71-1.07,1.21-.18,2.45-.1,3.64-.36,1.56-.33,2.97-1.2,4.24-2.2,.3-.23,.6-.5,.68-.87,.08-.37-.23-.82-.59-.73Z"/></g></g><g><path class="cls-7" d="M104.23,234.7c0-33.91,7.91-65.65,21.66-92.86-13.77-1.37-24.13-6.31-52.25-36.4-27.13-29.03-55.65,31.62-57.23,57.23-3.95,64.06,61.08,146.19,100.35,143.83-8.06-22.04-12.53-46.31-12.53-71.8Z"/><path class="cls-2" d="M142.46,89.11c-1.51,8.36-9.51,13.9-17.87,12.39-8.36-1.51-13.9-9.51-12.39-17.87,1.51-8.36,9.51-13.9,17.87-12.39,8.36,1.51,13.9,9.51,12.39,17.87Z"/><path class="cls-2" d="M171.07,104.49c-2,11.05-12.58,18.39-23.63,16.39-11.05-2-18.39-12.58-16.39-23.63,2-11.05,12.58-18.39,23.63-16.39,11.05,2,18.39,12.58,16.39,23.63Z"/><path class="cls-2" d="M164.82,137.45c-1.51,8.36-9.51,13.9-17.87,12.39-8.36-1.51-13.9-9.51-12.39-17.87,1.51-8.36,9.51-13.9,17.87-12.39,8.36,1.51,13.9,9.51,12.39,17.87Z"/><path class="cls-2" d="M144.67,158.01c-1.51,8.36-9.51,13.9-17.87,12.39-8.36-1.51-13.9-9.51-12.39-17.87,1.51-8.36,9.51-13.9,17.87-12.39,8.36,1.51,13.9,9.51,12.39,17.87Z"/><path class="cls-6" d="M110.07,108.53c3.55-5.17,13.31-9.81,21.31-6.09,2.67,1.24,5.13,3.41,7.11,6.81,1.8,3.09,7.62,9.91,9.24,14.5,.89,2.54-3.71,2.26-4.27,3.44-1.1,2.32,3.66,11.96,1.24,13.34-13.5,7.72-22.81,7.24-33.14-5.79-6.38-8.05-6.46-18.98-1.5-26.21Z"/><circle class="cls-5" cx="128.48" cy="135.03" r="5.36"/><path class="cls-2" d="M134.14,98.93s3.99,8.38-10.37,19.54c-14.36,11.17-15.56,14.36-15.56,14.36,0,0-2.73-4.39-2.99-12.56-.27-8.17,.06-21.32,5.38-22.34,5.33-1.01,6.16-12.42,17.04-5.51s6.49,6.51,6.49,6.51Z"/><path class="cls-6" d="M109.53,130.86s-1.68,2.21-8.59,.89,7.24,13.49,10.2,13.49,.33-11.18,6.91-10.85c6.58,.33-8.51-3.53-8.51-3.53Z"/></g><path class="cls-3" d="M370,242.15c10.98-60.94-2.36-165.72-100.86-163.31-47.51,4.67-76.42,35.72-84.35,72.34-22.46-3.65-45.84,.66-65.61,14.13-42.55,29-52.17,89.02-21.48,134.06,40.89,59.99,181.87,56.46,243.58,64.86,1.93,.26,26.45-109.49,28.71-122.07Z"/><path class="cls-9" d="M406.1,204.89c-8.57-6.41-16.69,1.39-16.69,1.39l-20.34,24.93c-1.37,1.01-4.47,3.07-7.38,3.99-2.22,.7-3.45,.46-5.51,1.56-.11,.05-.22,.11-.32,.18-1.93,1.05-3.68,2.31-4.98,4.08-.61,.84-1.1,1.76-1.64,2.65-1.16,1.91-2.57,3.66-4.08,5.31-.54,.59-1.14,1.3-1,2.09,3.22-.97,5.39-3.69,7.78-6.15-1.78,4.28-1.8,9.28-4.1,13.34-.69,1.21-1.53,2.87-.51,3.82,.84,.78,2.09,.26,3.1-.28-.27,.37,.09,.94,.55,1.03,.45,.09,.91-.14,1.31-.37,1.73-.98,3.38-2.18,4.49-3.82,.85-1.25,1.35-2.71,2.12-4.02,.59-.99,1.57-1.85,2.48-2.61l.21,.03c-.56,2.45-1.28,4.86-2.15,7.22-.19,.52-.39,1.11-.14,1.61,.3,.62,1.18,.76,1.8,.47,.62-.29,1.04-.89,1.4-1.48,.82-1.35,1.5-2.79,2-4.29,.21-.62,.39-1.25,.74-1.8,.25-.4,.58-.74,.92-1.08,2.5-2.46,6.81-4.15,7.16-7.65,2.7-27.19,27.69-29.24,27.69-29.24,8.33-.66,13.64-4.49,5.06-10.91Z"/><path class="cls-6" d="M368.77,98.91c-1.01-.12-2.23,.24-3.6,1.21-5.68,4.03,11.76-4.59,4.39-3.04-3.19,.67-5.47-1.72-4.5-5.44,.97-3.72-6.24,1.72-3.51-.44,2.02-1.59-.29,.89-.63-1.97-.38-3.17-8.12,2.44-10.92,3.83-2.8,1.4-32.59-7.4-16.08-30.39,9.91-13.79,59.46,2.5,51.52-27.8-5.85-22.32,15.13-23.38,28.02-16.73,3.36,1.73,4.02,5.52,8.28,5.71,5.26,.24,8.28-2.8,11.01-6.88,3.48-5.19,8.32-10.39,14.93-10.86,8.77-.63,15.17,11.13,7.33,17.06-3.61,2.73-8.43,2.85-12.7,3.77-1.87,.4-9.95,1.91-6.57,5.42,1.22,1.27,3.93,1.03,5.52,1.26,5.82,.82,15.51,3.98,14.9,11.65-.49,6.16-9.38,7.41-13.86,9.42-4.22,1.89-.1,5.96,1.86,8.24,2.33,2.72,4.82,5.32,7.03,8.14,1.49,1.91,3.74,5.76,2.79,8.36-2.13,5.8-9.85,1.45-14.14,6.75-4.3,5.3,3.84,24.18-9.87,14.96-3.73-2.51-7.24-6.75-11.57-4.31-5.52,3.11-2.31,13.63-2,18.47,.34,5.22-2.07,13.47-8.44,13.84-7.68,.44-7.16-9.42-8.15-14.32-.86-4.28-5.09-9.24-9.96-7.55-4.79,1.66-5.24,8.67-6.38,12.78-1.58,5.69,4.33-.87-1.35,1.48-4.53,1.87,2.84-8.27,.85-14.04-2.99-8.7-13.6,6.58-11.45-1.21,1.05-3.8-.19-7.08-2.75-7.37Z"/><path class="cls-9" d="M388.84,85.39c-5.25-6.93-21.95-12.35-29.5,2.13-1.72,3.3-7.44,10.66-8.89,15.51-.8,2.68,3.96,2.17,4.6,3.36,1.25,2.36-3.22,12.6-.63,13.92,14.4,7.36,24.05,6.41,34.14-7.63,6.23-8.67,5.78-20.03,.28-27.3Z"/><circle class="cls-5" cx="380.38" cy="109.14" r="5.57"/><path class="cls-6" d="M346.74,92.57c9.5,2.45,44.41-5.36,47.43-5.11,15.07,1.21,17.5,13.28,17.3,12.52l1.8-40.13-45.9,10.9-5.47,7.74-15.16,14.09Z"/><path class="cls-6" d="M232.38,249.67c.37,.06,.63-.42,.52-.78-.11-.36-.45-.6-.76-.8-1.36-.87-2.84-1.61-4.43-1.79-1.21-.14-2.44,.06-3.66,0-.93-.05-1.91-.43-2.8-.8l-.06-.16c1.95-.52,3.93-.92,5.93-1.19,.44-.06,.93-.14,1.19-.5,.32-.45,.08-1.14-.36-1.47-.45-.34-1.03-.41-1.58-.45-1.27-.08-2.55-.02-3.8,.18-.52,.08-1.04,.19-1.56,.15-.38-.03-.75-.14-1.11-.26-2.7-.87-5.33-2.27-8.16-2.26-1.28,0-2.63,.2-3.58,.84-2.22,1.14-6.42-1.45-8.38-2.41-.04,.03-.07,.04-.1,.07-8.73-4.63-14.17-12.52-20.47-22.08-7.22-10.94-13.46-26.84-25.95-32.86-12.27-5.91-24.67-6.02-36.66-6.12-12.23-.11-23.78-.21-35.61-5.92-21.9-10.57-11.38-50.79-11.34-51.17,0,0-2.58-6.02-8.6-5.74s-6.88,7.01-6.88,7.01c-.19,1.81-4.3,44.47,23.07,57.68,13.58,6.55,26.65,6.67,39.29,6.78,11.55,.1,22.46,.2,32.98,5.27,10.34,4.98,16.83,14.82,23.71,25.25,6.57,9.96,13.34,20.21,23.86,26.12,2.5,2.24,9.16,8.31,11.87,10.12,1.17,.89,2.32,1.83,3.52,2.65,.08,.06,.16,.11,.25,.16,1.49,.99,3.05,1.77,4.8,2.04,.83,.13,1.67,.12,2.51,.18,1.8,.11,3.58,.47,5.33,.93,.63,.17,1.35,.33,1.86-.07-1.92-1.95-4.68-2.49-7.34-3.27,3.72-.34,7.26-2.21,11.02-2.1,1.12,.04,2.62,.01,2.9-1.08,.23-.9-.62-1.6-1.39-2.13Z"/><g><path class="cls-4" d="M199.99,302.45c.49-6.2,1.12-12.4,1.78-18.58,.52-4.91,1.02-9.83,1.78-14.71,.59-3.73,1.48-4.24,5.17-3.86,.31,.03,.63,.07,.92,.15,4.43,1.26,8.86,2.52,13.29,3.78,18.5,5.27,37.02,10.49,55.49,15.87,2.75,.8,5.35,2.24,7.93,3.57,1.76,.9,2.37,2.49,2.13,4.6-.93,8.15-1.75,16.31-2.61,24.46-1.22,11.61-2.67,23.19-5.01,34.64-1.19,5.82-2.77,11.58-2.32,17.64,.14,1.85-.88,3.22-2.41,4.16-1.73,1.06-3.45,2.12-5.2,3.13-15.17,8.66-30.37,17.27-45.52,25.96-7.4,4.24-14.73,8.6-22.07,12.94-2.2,1.3-3.63,1.34-5.66-.29-3.94-3.16-7.93-6.27-11.75-9.58-12.98-11.26-24.78-23.8-36.83-36.06-2.03-2.07-3.49-4.87-4.75-7.56-1.53-3.26-.69-4.8,2.61-6.16,7.7-3.18,15.44-6.26,23.08-9.58,5.74-2.5,11.38-5.26,17.01-8.02,2.65-1.3,5.06-3.15,7.78-4.24,3.27-1.3,4.68-3.61,4.88-6.97,.07-1.19,.06-2.38,.02-3.57-.1-2.84-.24-5.68-.38-9.12,.18-3.79,.28-8.2,.62-12.58Zm70.17,63.14c-7.15-4.33-14.26-8.74-21.44-13.02-10.14-6.04-20.81-10.92-31.64-15.49-4.62-1.95-9.02-4.41-13.53-6.64-.36-.18-.71-.38-1.09-.53-1.33-.53-1.74-.26-1.61,1.22,.11,1.37-.35,2.25-1.57,2.85-4.42,2.18-8.77,4.5-13.23,6.59-5.6,2.63-11.28,5.06-16.91,7.61-7.26,3.29-14.51,6.61-21.75,9.95-1.41,.65-1.51,1.2-.47,2.21,7.29,7.16,14.24,14.73,21.97,21.34,9,7.71,16.71,16.65,25.01,25.04,2.49,2.52,5.44,4.08,9.03,3.55,1.28-.19,2.61-.74,3.69-1.48,5.07-3.52,10.38-6.56,15.91-9.28,12.01-5.9,23.51-12.72,34.61-20.29,4.23-2.88,8.78-5.27,13.2-7.84,1.49-.86,2.97-1.68,3.78-3.58-1.39-.78-2.7-1.46-3.96-2.23Zm-69.28-39.91c.03,1.57,.64,2.47,2.06,3.12,9.59,4.38,19.12,8.89,28.71,13.25,11.21,5.1,21.71,11.53,32.22,17.92,3.11,1.89,6.29,3.67,9.47,5.43,1.9,1.05,2.62,.68,3.14-1.48,1.19-4.89,2.52-9.75,3.5-14.68,.84-4.21,1.31-8.49,1.89-12.75,.69-4.99,1.41-9.97,1.97-14.97,1.04-9.29,1.97-18.59,2.94-27.88,.15-1.49-.27-2.8-1.61-3.5-2.42-1.27-4.8-2.73-7.37-3.56-10.35-3.33-20.73-6.59-31.17-9.59-7.43-2.13-15.02-3.7-22.49-5.72-3.7-1-7.26-2.57-10.94-3.68-1.82-.55-3.76-.71-5.66-.91-1.19-.13-2.14,.47-2.41,1.73-.61,2.8-1.39,5.6-1.66,8.44-1.01,10.44-1.86,20.9-2.7,31.36-.17,2.18-.03,4.4-.03,6.6h-.28c.15,3.62,.34,7.24,.41,10.86Zm-51.98,41.74c3.22,3.61,6.46,7.2,9.85,10.64,6,6.08,12.02,12.15,18.2,18.03,5.27,5.01,10.73,9.82,16.2,14.59,1.79,1.56,3.89,2.74,5.88,4.04,.21,.14,.82,.08,.9-.08,.21-.41,.42-1,.27-1.36-.21-.51-.67-1.04-1.15-1.28-5.01-2.5-8.32-6.99-12.2-10.81-11.43-11.26-22.84-22.55-34.29-33.79-1.63-1.6-3.45-3.01-5.41-4.71,0,2.06,.69,3.53,1.74,4.71Zm118.23,7.43c-7.91,4.89-15.73,9.95-23.7,14.74-4.88,2.93-9.99,5.45-14.96,8.24-8.45,4.75-16.86,9.55-25.28,14.36-1.41,.8-1.61,1.36-1.59,3.39,1.67-.81,3.27-1.45,4.73-2.33,6.77-4.07,13.27-8.67,20.3-12.19,9.97-4.99,19.26-11.16,28.97-16.57,5.02-2.8,9.99-5.7,14.97-8.57,1.63-.94,3.22-1.97,4.84-2.93,.82-.48,1.27-1.11,1.1-2.13-.07-.43-.05-.87-.07-1.46-3.2,1.86-6.3,3.58-9.32,5.44Z"/><path class="cls-4" d="M178.08,348.07c5.13-2.64,10.27-5.26,15.39-7.93,2.26-1.18,4.58-2.29,6.68-3.72,2.94-2,4.12-1.96,6.93,.23,2.44,1.91,5.03,3.62,7.65,5.27,3.95,2.5,8.11,4.66,11.94,7.34,6.6,4.62,12.93,9.65,19.54,14.25,4.39,3.06,8.55,6.71,14.08,7.64,.22,.04,.58,.42,.55,.6-.03,.31-.25,.72-.51,.87-1.95,1.11-3.89,2.23-5.9,3.21-2.09,1.02-4.33,1.73-6.36,2.87-5.48,3.07-10.87,6.3-16.3,9.47-1.26,.74-2.42,.64-3.62-.24-5.89-4.3-11.93-8.4-17.69-12.88-10.69-8.33-22.37-15.32-32.21-24.81-.44-.42-.98-.73-1.74-1.28,.72-.42,1.12-.68,1.55-.89Zm55.98,37.61c4.77-2.8,9.43-5.78,14.24-8.51,2.41-1.37,5.01-2.36,7.56-3.45,1.13-.48,1.42-1.13,.56-2.03-.68-.71-1.45-1.42-2.31-1.85-7.58-3.78-13.84-9.57-20.8-14.26-8.84-5.96-17.98-11.46-27.01-17.12-2.01-1.26-4.11-.73-6.05,.18-5.47,2.58-10.9,5.27-16.33,7.93-1.29,.63-2.57,1.27-3.81,1.98-.77,.44-.99,.99-.11,1.67,7.26,5.57,14.46,11.23,21.78,16.72,8.37,6.28,16.83,12.42,25.29,18.57,.98,.71,2.22,1.05,3.38,1.58,1.32-.5,2.57-.78,3.62-1.4Z"/><path class="cls-4" d="M182.48,385.73c-.52-.35-.98-.8-1.45-1.22-4.59-4.15-9.18-8.31-13.77-12.46-1.53-1.38-1.5-2.3,.24-3.42,1.47-.95,2.98-1.86,4.55-2.62,2.71-1.3,5.57-2.29,8.19-3.75,2.19-1.22,3.82-.79,5.59,.71,4.54,3.86,9.15,7.63,13.73,11.45,.48,.4,.96,.84,1.33,1.35,1.43,1.93,.99,3.54-1.17,4.4-4.87,1.94-9.75,3.87-14.62,5.8-.37,.15-.76,.26-1.26,.43-.43-.2-.94-.36-1.37-.65Zm4.88-2.01c3.72-1.42,7.45-2.84,11.13-4.36,2.25-.93,2.48-2.21,.61-3.7-4.93-3.94-9.93-7.79-14.95-11.6-.52-.39-1.52-.55-2.11-.31-4.45,1.77-8.86,3.67-13.27,5.54-.89,.38-1.2,.93-.33,1.72,4.17,3.8,8.33,7.61,12.5,11.41,.5,.46,1.01,.93,1.58,1.26,.64,.37,1.37,.59,1.99,.85,1.06-.3,1.98-.48,2.85-.82Z"/><path class="cls-4" d="M209.78,281.92c.06-1.23,.08-2.47,.21-3.7,.13-1.23,.31-2.46,.59-3.66,.65-2.8,2.14-3.71,4.84-3.02,.73,.19,1.44,.49,2.15,.75,5.71,2.08,11.02,5.13,16.96,6.72,7.03,1.88,13.9,4.38,20.87,6.51,8.46,2.58,16.84,5.6,25.78,6.13,.46,.03,1.22,.77,1.26,1.23,.15,2.03,.35,4.13,.05,6.12-.58,3.89-1.57,7.71-2.24,11.59-1.45,8.38-2.78,16.79-4.22,25.18-1.02,5.98-2.17,11.94-3.2,17.92-.59,3.45-.74,3.55-3.84,1.99-9.01-4.52-18.05-8.99-27.07-13.49-10.6-5.28-21.2-10.58-31.81-15.85-2.4-1.19-3.94-3.03-4.22-5.76-.23-2.27-.52-4.6-.27-6.84,.75-6.68,1.73-13.34,2.67-20,.56-3.94,1.21-7.86,1.82-11.79l-.32-.04Zm-2.2,37.66c.3,2.84,1.9,4.87,4.25,6.14,3.95,2.14,7.98,4.1,12,6.1,6.74,3.36,13.49,6.73,20.25,10.05,8.05,3.94,16.11,7.84,24.18,11.73,2.07,1,2.75,.67,3.2-1.58,1.07-5.24,2.17-10.47,3.1-15.73,2.25-12.66,4.41-25.33,6.61-38,.08-.45,.15-.9,.18-1.36,.18-2.25-.42-3.27-2.56-3.83-2.34-.6-4.75-.88-7.07-1.54-6.97-1.96-13.93-3.97-20.86-6.08-6.71-2.04-13.42-4.1-20.05-6.39-4.6-1.59-9.07-3.6-13.6-5.4-.66-.26-1.35-.51-2.04-.67-1.94-.44-3.01,.19-3.52,2.15-.27,1.06-.49,2.16-.53,3.25-.33,9.24-2.26,18.25-3.57,27.35-.31,2.12-.47,4.27-.68,6.21,.24,2.69,.43,5.16,.69,7.62Z"/><path class="cls-4" d="M251.78,371.65c.41,.23,.71,.92,.8,1.44,.05,.28-.39,.77-.73,.97-2.27,1.35-4.58,2.63-6.86,3.95-2.52,1.46-4.99,3.01-7.53,4.42-1.76,.97-3.62,1.74-5.4,2.67-.76,.4-1.17,.28-1.64-.45-.54-.82-1.15-1.69-1.93-2.23-4.13-2.89-8.24-5.83-12.52-8.48-6.39-3.96-12.92-7.66-18.71-12.55-3.09-2.61-6.36-5.05-8.24-8.87-1.02-2.07-.63-3.32,1.37-4.32,1.74-.88,3.72-1.6,5.04-2.96,1.98-2.03,4.08-3.81,6.41-5.36,2.37-1.58,2.65-1.54,4.7,.43,.52,.5,1.39,1.21,1.88,1.06,1.37-.4,2.07,.47,2.94,1.12,1.22,.92,2.42,1.9,3.71,2.7,1.91,1.17,3.62,2.42,3.63,4.65,1.68,.85,3.24,1.43,4.58,2.36,1.46,1.01,2.83,2.11,4.35,3.06,3.19,2,6.19,4.36,9.06,6.82,1.89,1.61,3.89,2.86,6.12,3.86,1.66,.75,3.23,1.74,4.78,2.73,.43,.28,.64,.92,1.15,1.72,.81,.32,1.98,.68,3.03,1.26Zm-24.12-2.95c.08-.38-.25-1.14-.57-1.28-4.35-1.89-7.77-5.13-11.47-8-1.59-1.24-3.64-1.88-5.54-2.64-1.24-.49-1.52,.76-2,1.53-.54,.87-.12,1.4,.62,1.9,3.98,2.7,7.95,5.42,11.92,8.14,.78,.53,1.47,1.2,2.27,1.7,.63,.4,1.35,.64,1.72,.8,1.5-.03,2.82-.99,3.06-2.15Zm-13.74-15.65c.1-.1-.14-.8-.39-.99-1.68-1.33-3.31-2.8-5.15-3.85-2.61-1.48-5.45-2.53-7.47-4.97-.56-.67-1.82-.08-2.63,1.06-.65,.92-.06,1.25,.61,1.67,1.87,1.16,3.78,2.28,5.55,3.59,1.4,1.03,2.6,2.35,3.95,3.47,.91,.75,1.93,1.37,3.04,2.15,.96-.8,1.77-1.41,2.48-2.13Zm-16.81,.6c-.72-.55-1.46-1.05-2.44-.54-1.85,.98-2.11,2.1-.52,3.44,2.65,2.23,5.42,4.3,8.14,6.44,.86,.68,1.59,.6,2.3-.3,.6-.77,1.3-1.46,1.75-1.95-3.13-2.41-6.17-4.76-9.22-7.09Zm38.34,24.83c1.02,.55,2.05,1.15,3.14,1.5,.57,.18,1.44,.08,1.93-.26,1.25-.88,1.08-1.61-.21-2.45-1.26-.83-2.45-1.79-3.62-2.77-2.23-1.86-2.72-1.88-4.89,.05-.36,.32-.7,.67-1.25,1.2,1.73,.97,3.31,1.88,4.9,2.73Zm-30.27-14.64c-.24,.32,.24,1.62,.74,2.01,.9,.7,2.02,1.16,3.12,1.47,.4,.11,1.12-.37,1.48-.78,1.89-2.13,1.69-3.09-.83-4.39-.47-.24-.98-.41-1.81-.75-.86,.74-1.95,1.46-2.69,2.44Zm12.01,3.65c-.69-.57-1.47-1.03-2.2-1.55-.98-.71-1.82-.5-2.61,.32-1.37,1.42-1.89,2.51,.32,3.68,.63,.33,1.25,.71,1.9,1,1.76,.78,3.26-.31,3.19-2.58-.11-.16-.28-.6-.6-.86Zm-3.43-12.76c-.41,.3-.79,.93-.8,1.41,0,.31,.65,.68,1.07,.95,1.01,.65,2.1,1.19,3.06,1.89,1.24,.91,1.93,.12,2.69-.72,.8-.88,.38-1.53-.27-2.22-1.05-1.11-2.2-1.98-4.08-2.06-.4,.17-1.13,.33-1.68,.74Zm17.15,23.1c-.03-.24-.33-.48-.55-.66-.91-.76-1.91-1.43-2.72-2.29-.6-.64-1.04-.75-1.66-.17-.03,.03-.08,.05-.1,.09-.59,.84-1.56,1.64-1.67,2.54-.12,.93,3.19,2.91,4.38,2.92,.9,0,2.43-1.53,2.33-2.43Zm-8.15-5.95c-.35-.29-.7-.55-1.06-.82-1.85-1.38-2.61-1.26-3.82,.71-.17,.28-.12,.95,.1,1.18,.48,.51,1.1,.9,1.7,1.27,1.02,.62,2.08,1.18,3.22,1.82,2.19-2.1,2.18-2.25-.13-4.15Zm-18.47-19.39c.15-.62,.08-1.62-.31-1.98-.58-.53-1.56-.95-2.31-.86-.74,.08-1.61,.7-2.05,1.35-.45,.66-.8,1.77-.57,2.45,.23,.66,1.27,1.01,1.95,1.5,1.39-.25,3-1.26,3.28-2.45Zm20.98,8.22c0-.91-1.92-3.01-2.77-3.04-1.23-.05-2.51,1.5-2.52,3.05-.02,1.45,1.11,2.33,3.02,2.36,1.19,.02,2.29-1.11,2.28-2.37Zm5.53,3.53c-.07-1.63-1.8-3.1-3.56-3.05-.87,.03-2.09,1.69-2.16,2.96-.05,.79,2.46,2.17,3.89,2.14,1.16-.02,1.89-.84,1.83-2.05Zm-30.93-15.48c.02-1.1-1.28-2.07-2.87-2.12-1.12-.03-2.79,1.11-2.8,1.92-.01,1.16,1.68,2.78,2.93,2.79,1.18,.01,2.71-1.44,2.74-2.59Zm40.5,26.33c.05,.95,1.36,1.86,2.65,1.85,1.49-.01,3.16-1.16,3.19-2.18,.03-1.19-1.32-2.19-2.94-2.16-1.45,.02-2.97,1.33-2.91,2.5Zm-28.38-28.37c1.01-.59,1.08-1.34,.29-2.24-1.52-1.72-3.18-1.9-4.62-.51-.94,.91-.92,1.74,.2,2.44,.7,.44,1.53,.66,2.32,.98,.67-.24,1.29-.38,1.81-.68Zm26.34,26.83c1.24,.44,2.48-.41,2.72-1.56,.2-.98-.48-1.84-1.74-2.22-2.22-.67-2.66-.49-4.3,1.99,1.17,.65,2.19,1.39,3.33,1.79Zm-30.35-18.12c-.17-.84-1.18-1.87-2-2.1-1.13-.31-3.09,1.84-3.04,2.93,.05,1.03,1.17,1.8,2.61,1.79,1.38-.01,2.73-1.21,2.43-2.62Zm23.82,16.78c.42-1.19-.47-1.82-1.12-2.41-.89-.8-1.83-.1-2.56,.41-.64,.45-1.3,1.16-1.5,1.89-.23,.82,1.44,1.87,3,1.88,.93-.03,1.76-.59,2.18-1.77Zm-14.93-19.43c1.39,.9,2.61,1.73,3.86,2.49,.78,.47,1.6,.24,1.93-.55,.15-.36-.24-1.15-.6-1.5-.99-.97-2.1-1.82-3.2-2.75l-1.98,2.32Zm15.19,10.44c.59,.41,1.49,.66,2.17,.52,1.01-.2,1.25-1.14,.46-1.81-1.14-.96-2.44-1.76-3.77-2.44-.35-.18-1.05,.35-1.59,.56l-.16,.6c.96,.87,1.85,1.84,2.9,2.57Zm3.48,5.29c.12-.18-.43-.88-.73-1.29-.35-.47-.75-.9-1.16-1.31-.59-.6-1.27-.94-1.98-.26-.73,.7-1.25,1.64-.44,2.5,.66,.7,1.63,1.1,2.64,1.74,.69-.53,1.32-.86,1.67-1.38Zm-19.74-20.63c-.76-1.12-2.63-1.09-3.28,.08-.12,.21-.14,.54-.08,.77,.31,1.22,2.31,2.7,3.54,2.5,.55-.09,1.04-.59,1.55-.91l-.28-.35c-.49-.7-.98-1.39-1.45-2.09Zm19.61,17.4c-.12,.35,.09,1.06,.38,1.28,.89,.65,1.85,1.35,2.89,1.62,.56,.14,1.53-.39,1.95-.92,.62-.77-.26-1.22-.81-1.52-1.02-.55-2.09-.98-3.3-1.53-.42,.38-.96,.66-1.11,1.08Zm-.99,14.6c-2.09-1.09-2.07-1.07-3.55,.68-.53,.63-.86,1.36-.16,1.89,.51,.39,1.45,.68,1.97,.46,1.13-.48,2.11-1.32,3.38-2.16-.71-.37-1.18-.62-1.65-.87Zm-5.71-21.19c.12-.31-.17-.99-.48-1.24-.94-.74-1.95-1.43-3.01-1.97-.36-.18-1.06-.02-1.4,.26-.19,.16-.1,.96,.11,1.3,.82,1.3,1.9,2.28,3.85,2.41,.19-.14,.77-.37,.92-.76Zm-34.33-7.23c-.79-.81-1.85-1.45-2.91-1.83-.76-.27-1.46,.28-1.44,1.3,.02,1.17,1.04,2.33,2.04,2.32,1.03,0,2.71-1.39,2.31-1.8Zm11.75-9.08c-.4-.68-1.08-1.54-1.73-1.63-.68-.1-1.82,.44-2.13,1.03-.4,.8,1.58,2.6,2.65,2.59,1.2-.01,1.83-.93,1.21-1.99Zm35.57,26.12c-.13,.38,.15,1.05,.46,1.4,1.13,1.31,2.42,1.56,3.34,.8,.56-.46,.75-.96,.13-1.44-.78-.61-1.64-1.11-2.54-1.71-.61,.39-1.26,.58-1.39,.95Zm6.1,2.31c-.33,.52-.99,1.13-1.03,1.77-.02,.42,.83,1.21,1.34,1.25,.65,.05,1.34-.48,1.99-.76l-2.31-2.26Z"/></g></svg>