<?xml version="1.0" encoding="UTF-8"?><svg id="Layer_1" xmlns="http://www.w3.org/2000/svg" xmlns:xlink="http://www.w3.org/1999/xlink" viewBox="0 0 164.71 136.76"><defs><style>.cls-1{fill:none;}.cls-2{clip-path:url(#clippath);}.cls-3{fill:#f3b2c7;}.cls-4{fill:#f9f5f4;}.cls-5{fill:#020202;}.cls-6{fill:#ed9c21;}.cls-7{fill:#eafd53;}.cls-8{fill:#f6aec6;}.cls-9{fill:#faf9f6;}.cls-10{fill:#e3a038;}.cls-11{fill:#6c1285;}.cls-12{fill:#30b34b;}.cls-13{fill:#8dd5eb;}.cls-14{fill:#adc6dc;}.cls-15{fill:#d8bed3;}.cls-16{fill:#c22a1e;}.cls-17{fill:#d32127;}.cls-18{fill:#d9a828;}.cls-19{fill:#dfe21d;}.cls-20{fill:#070605;}.cls-21{fill:#1b315e;}.cls-22{fill:#0d1893;}.cls-23{fill:#732a85;}.cls-24{fill:#29327d;}.cls-25{fill:#2c348a;}.cls-26{fill:#5b3b1b;}.cls-27{fill:#57bc37;}.cls-28{fill:#5f3b19;}.cls-29{clip-path:url(#clippath-1);}.cls-30{clip-path:url(#clippath-2);}</style><clipPath id="clippath"><path class="cls-1" d="M3.03,38.91c0-.8,.2-1,1-1,.46,0,35.63,.04,36.31,.04,5.35,.03,10.6,.74,15.5,3.09,5.82,2.79,10.01,7.25,13.18,12.79,3,5.24,4.68,10.9,5.62,16.83,1.07,6.76,1.28,13.54,.68,20.35-.82,9.32-3,18.25-7.9,26.34-4.18,6.91-9.94,11.85-17.85,14.05-2.77,.77-5.6,1.19-8.47,1.2-.53,0-36.7,.03-37.19,.03-.77,0-.88-.23-.88-.93s0-92.32,0-92.78ZM20.43,115.11c0,.77,.15,1.03,.99,1.02,.45,0,15.78-.02,15.78-.02,6.35,0,11.25-2.69,14.67-8.03,3.31-5.17,4.6-10.98,5.22-16.99,.5-4.84,.43-9.68-.01-14.52-.41-4.37-1.24-8.65-2.94-12.74-1.7-4.08-4.6-6.83-8.77-8.23-2.43-.82-4.94-1.16-7.5-1.17-5.5-.02-16.49-.03-16.49-.03-.8,0-.95,.24-.95,.99,0,0,0,59.62,0,59.71Z"/></clipPath><clipPath id="clippath-1"><path class="cls-1" d="M85.08,34.88c.01-4.48,.56-8.91,1.92-13.21,3.09-9.73,9.74-15.6,19.58-17.96,3.02-.73,6.1-1.05,9.2-1.06,.5,0,13.34-.02,13.77-.02,.71,0,.86,.2,.86,.88,0,.36,0,15.55,0,15.96,0,.66-.17,.84-.83,.83-4.06-.03-8.13,.08-12.19-.03-8.99-.24-14.8,6.96-14.78,14.72,0,.75,.02,64.7,.02,65.09,0,6.85,4.14,12.42,10.3,14.13,1.8,.5,3.64,.51,5.47,.54,.75,0,11.22,.06,11.22,.06,.62,0,.78,.18,.78,.78,0,.54,0,15.51,0,16.13,0,.53-.09,.79-.71,.77,0,0-11.81,.2-17.7-.3-6.79-.58-13.02-2.65-18.11-7.43-3.94-3.7-6.2-8.34-7.49-13.51-.91-3.64-1.31-7.36-1.32-11.1,0-.51,0-64.84,0-65.26Z"/></clipPath><clipPath id="clippath-2"><path class="cls-1" d="M143.89,39.08c0-.87,.16-1.18,1.11-1.17,.92,0,14.93,0,15.61,0,.74,0,.91,.19,.91,.92,0,.86,0,91.59,0,92.6,0,.82-.25,.94-.98,.94-.86,0-14.96,0-15.7,0-.78,0-.96-.2-.96-.96,0-.65,0-91.71,0-92.34Z"/></clipPath></defs><g class="cls-2"><g><path class="cls-1" d="M22.1,114.68c-.42,.66-.99,1.17-1.54,1.71,.54-.54,1.12-1.06,1.54-1.71,.13-.04,.22-.13,.26-.26-.04,.13-.12,.22-.26,.26Z"/><path class="cls-1" d="M23.39,113.36c-.12,.31-.31,.55-.55,.75,.24-.19,.43-.44,.55-.75,.22-.16,.37-.39,.54-.59-.18,.2-.32,.43-.54,.59Z"/><path class="cls-1" d="M70.15,117.43c.13-.09,.17-.24,.16-.43l.56-.51-.56,.51c0,.19-.04,.35-.16,.43Z"/><path class="cls-1" d="M12.26,124.53c-.15,.38-.48,.58-.79,.8,.31-.22,.64-.41,.79-.8,.12-.17,.25-.32,.41-.46-.15,.14-.29,.29-.41,.46Z"/><path class="cls-1" d="M14.5,122.43c.36-.26,.61-.64,.85-1.03l.64-.66c-.21,.22-.42,.44-.64,.66-.24,.39-.49,.77-.85,1.03Z"/><path class="cls-1" d="M25.33,111.42s.06,0,.09,0c-.03,0-.06,0-.09,0h0Z"/><path class="cls-1" d="M71.18,116.19c.09-.03,.15-.09,.18-.2l.29-.29c-.1,.1-.19,.19-.29,.28-.03,.1-.09,.17-.18,.2Z"/><path class="cls-1" d="M69.04,118.3h0c.26-.06,.43-.23,.5-.49,.03-.02,.07-.03,.11-.04-.04,.01-.07,.03-.11,.04-.07,.26-.24,.43-.5,.49Z"/><path class="cls-1" d="M24.78,112.17c.24-.19,.42-.44,.55-.75h0c-.12,.31-.31,.55-.55,.75Z"/><polygon class="cls-1" points="69.91 117.5 69.91 117.5 69.91 117.5 69.91 117.5"/><path class="cls-1" d="M25.49,111.1s.09-.04,.14-.05c-.05,.01-.1,.03-.14,.05Z"/><path class="cls-1" d="M72.8,114.61c.06-.05,.1-.12,.11-.21l.15-.12-.15,.12c-.01,.09-.05,.16-.11,.21Z"/><path class="cls-1" d="M73.95,113.38c-.17,.32-.28,.69-.62,.83,.34-.15,.45-.52,.62-.83,.17-.23,.36-.44,.58-.62-.22,.18-.41,.39-.58,.62Z"/><path class="cls-1" d="M10.57,126.27c.3-.15,.52-.38,.63-.72l.13-.14-.13,.14c-.11,.34-.33,.57-.63,.72Z"/><path class="cls-1" d="M75.52,111.83h0l-.02-.03,.02,.03Z"/><path class="cls-1" d="M14.5,122.43c-.1,.07-.21,.13-.32,.18,.12-.05,.22-.11,.32-.18Z"/><path class="cls-1" d="M3.06,133.79c.3-.15,.53-.38,.64-.72h0c-.11,.34-.34,.57-.64,.72Z"/><path class="cls-1" d="M79,60.89c.05,.05,.09,.13,.1,.22-.02-.09-.05-.17-.1-.22Z"/><polygon class="cls-1" points="71.86 115.44 71.87 115.43 71.86 115.44 71.86 115.44"/><path class="cls-1" d="M9.56,127.39c.3-.26,.61-.52,.74-.93l.13-.13-.13,.13c-.13,.41-.44,.67-.74,.93Z"/><path class="cls-1" d="M72.67,114.69h0v0Z"/><path class="cls-1" d="M72.39,114.65h0Z"/><path class="cls-1" d="M45.57,91.36c.37-.27,.67-.62,.9-1.04h0c-.23,.42-.53,.77-.9,1.04Z"/><path class="cls-1" d="M23.24,22.19c5.59,0,11.18,0,16.77,0h0c-5.59,0-11.18,0-16.77,0Z"/><path class="cls-1" d="M58.18,40.41c2.07,2.08,4.13,4.16,6.21,6.24-2.07-2.08-4.14-4.16-6.21-6.24h0Z"/><path class="cls-1" d="M83.2,106.83c-.94,.03-1.89,.12-2.82-.13h0c.93,.25,1.88,.16,2.82,.13Z"/><path class="cls-1" d="M59.84,40.31s.09,0,.13,0c-.04,0-.09,0-.13,0Z"/><path class="cls-1" d="M2.92,34.87c0-3.02,0-6.05-.01-9.07,0,3.02,0,6.05,.01,9.07h0Z"/><path class="cls-1" d="M79.12,61.3l.13,.13h0l-.13-.13Z"/><path class="cls-1" d="M78.97,60.86h0Z"/><path class="cls-1" d="M5.24,37.67c-.75-.74-1.65-1.34-2.32-2.18,0-.21,0-.42,0-.63,0,.21,0,.42,0,.63,.67,.83,1.58,1.44,2.32,2.18Z"/><path class="cls-1" d="M25.72,111.03c0,.23-.09,.36-.3,.39,.2-.02,.3-.15,.3-.39,.16-.23,.34-.43,.55-.61-.21,.18-.4,.38-.55,.61Z"/><path class="cls-1" d="M80.53,62.76l.08,.08-.08-.08h0Z"/><path class="cls-1" d="M76.85,59.09c.58,.57,1.16,1.13,1.75,1.7h0c-.58-.57-1.16-1.13-1.75-1.7Z"/><path class="cls-1" d="M81.01,63.3s.02-.05,.01-.07c0,.02,0,.04-.01,.07Z"/><path class="cls-1" d="M35.4,101.6c.45-.44,.92-.87,1.23-1.44l.14-.13s-.09,.08-.14,.13c-.3,.57-.77,1-1.23,1.44Z"/><path class="cls-1" d="M32.25,104.61c.39-.21,.68-.53,.86-.95l.12-.14-.12,.14c-.18,.42-.47,.74-.86,.95Z"/><path class="cls-1" d="M49.06,81.3c-.14-.15-.29-.3-.51-.34-.05-.08-.09-.18-.15-.24,.06,.06,.1,.16,.15,.24,.22,.05,.36,.19,.51,.34Z"/><path class="cls-1" d="M71.85,115.5s-.03,.08-.05,.11c.02-.03,.04-.07,.05-.11Z"/><path class="cls-1" d="M71.18,116.19s-.06,.02-.1,.02c.03,0,.07,0,.1-.02Z"/><path class="cls-1" d="M30.76,106.23c.4-.38,.76-.81,1.06-1.28l.26-.26-.26,.26c-.3,.48-.65,.9-1.06,1.28Z"/><path class="cls-1" d="M47.94,88.96c.26-.2,.61-.31,.6-.73h0c0,.41-.34,.53-.6,.73Z"/><path class="cls-1" d="M76.31,111.04c-.05,.05-.1,.1-.15,.15l.15-.15c.42-.1,.68-.35,.74-.79h0c-.06,.44-.32,.69-.74,.79Z"/><path class="cls-1" d="M39.05,97.95c.37-.33,.74-.67,.94-1.15h0c-.2,.48-.57,.82-.94,1.15Z"/><path class="cls-1" d="M40.26,96.61c.61-.44,1.12-.99,1.55-1.62l.24-.28c-.08,.09-.16,.19-.24,.28-.43,.62-.94,1.18-1.55,1.62Z"/><path class="cls-1" d="M42.69,94.23c.88-.73,1.61-1.62,2.35-2.49l.13-.13s-.09,.09-.13,.13c-.75,.87-1.47,1.75-2.35,2.49Z"/><path class="cls-1" d="M3.99,132.87c.65-.48,1.19-1.07,1.66-1.74l.13-.14s-.08,.09-.13,.14c-.47,.66-1.01,1.26-1.66,1.74Z"/><path class="cls-1" d="M68.57,118.8c.11-.04,.17-.12,.2-.24l.1-.09-.1,.09c-.02,.12-.09,.2-.2,.24Z"/><path class="cls-1" d="M23.24,22.19c1,1.02,1.99,2.04,2.99,3.06-1-1.01-1.99-2.04-2.99-3.06-4,0-8.01-.02-12.01-.02,4,0,8.01,.01,12.01,.02Z"/><path class="cls-1" d="M72.52,114.41s-.07,.04-.09,.07c.02-.03,.05-.06,.09-.07Z"/><path class="cls-1" d="M80.63,62.89s0-.01-.01-.02c0,0,0,.01,.01,.02Z"/><path class="cls-1" d="M80.62,62.87s0-.02,0-.02c0,0,0,.02,0,.02Z"/><path class="cls-1" d="M76.4,110.63h0l-.13,.14h0l.13-.14Z"/><polygon class="cls-1" points="72.39 114.65 72.38 114.66 72.39 114.65 72.39 114.65"/><path class="cls-1" d="M71.92,114.84s.03-.03,.05-.04c-.02,.01-.03,.03-.05,.04Z"/><path class="cls-1" d="M76.69,110.25c-.16,.04-.24,.14-.28,.3,.04-.15,.12-.26,.28-.3Z"/><path class="cls-1" d="M3.95,35.59s.06,.06,.09,.09c-.03-.03-.06-.06-.09-.09Z"/><path class="cls-1" d="M68.6,118.2s-.1,.08-.14,.12c.04-.04,.09-.08,.14-.12Z"/><path class="cls-6" d="M60.23,40.32c-.09,0-.17,0-.26,0-.04,0-.09,0-.13,0-.56-.02-1.12-.07-1.66,.1,2.07,2.08,4.13,4.16,6.21,6.24,3.55,3.56,7.1,7.11,10.66,10.66,.6,.6,1.2,1.19,1.81,1.78,.58,.57,1.16,1.13,1.75,1.7,.17-.02,.29,0,.37,.07h.01l.02,.03c.05,.05,.09,.13,.1,.22,0,.06,.01,.12,.01,.19l.13,.13c.06,0,.15,0,.2,0,.02,0,.04,.01,.05,.02,.99,.95,2.2,.68,3.38,.62,.3-.02,.6,0,.91,0,46.52,0,93.03,0,139.55,0,.15,0,.3,0,.45,0v-21.76c-.35,0-.69,.01-1.04,.01-54.17,0-108.35,0-162.52,0Z"/><path class="cls-25" d="M82.71,107.52c-.67,0-1.35,.27-2.02-.09-.2-.11-.4,.06-.57,.22-.25,.23-.51,.47-.87,.53-.05,.32-.23,.52-.51,.62-.04,.01-.08,.03-.13,.04l-.39,.38c0,.08-.04,.14-.08,.18-.04,.04-.1,.07-.18,.08l-.13,.13c0,.06-.03,.11-.05,.15-.05,.06-.12,.1-.22,.1l-.5,.4c-.06,.44-.32,.69-.74,.79l-.15,.15c-.02,.4-.26,.59-.64,.64h0c-.13,.32-.34,.55-.63,.7-.04,.02-.08,.04-.13,.06-.08,.05-.16,.1-.24,.16-.22,.18-.41,.39-.58,.62-.17,.32-.28,.68-.62,.83-.08,.03-.17,.06-.27,.07l-.15,.12c-.01,.09-.05,.16-.11,.21-.04,.03-.08,.05-.13,.07h0c-.17,.22-.3,.49-.53,.64-.08,.05-.17,.09-.28,.11h0s0,.05-.01,.07c-.01,.04-.03,.08-.05,.11-.04,.05-.09,.08-.15,.1l-.29,.29c-.03,.1-.09,.17-.18,.2-.03,.01-.06,.02-.1,.02h0s0,.03,0,.05c0,.03-.02,.06-.03,.09-.04,.07-.09,.11-.18,.14l-.56,.51c0,.19-.04,.35-.16,.43-.06,.04-.14,.06-.24,.07h0c-.01,.12-.06,.2-.15,.24-.03,.01-.07,.02-.11,.02-.04,.01-.07,.03-.11,.04-.07,.26-.24,.43-.5,.49h0l-.18,.17-.1,.09c-.02,.12-.09,.2-.2,.24-.02,0-.03,0-.05,.01-.93,.7-1.57,1.68-2.39,2.5-1.63,1.62-3.24,3.25-4.86,4.87-.96,.95-1.96,1.86-2.83,2.9,.25,.11,.51,.08,.77,.08,1.21,0,2.42,0,3.63,0,53.33,0,106.66,0,159.99,0,.32,0,.65,0,.97,0v-21.63c-47.03,0-94.05,0-141.08-.01Z"/><path class="cls-17" d="M40.01,22.19h0c.83,1.03,1.8,1.93,2.74,2.85,.13,.13,.27,.26,.4,.4,2.83,2.84,5.68,5.67,8.52,8.5,2.17,2.16,4.33,4.32,6.5,6.47h0c.55-.17,1.11-.13,1.66-.1,.04,0,.09,0,.13,0,.09,0,.17,0,.26,0,54.17,0,108.35,0,162.52,0,.35,0,.69,0,1.04-.01V22.17c-61.02,0-122.04,0-183.06,0-.24,0-.47,.01-.71,.02Z"/><path class="cls-17" d="M59.84,40.31c-.56-.02-1.12-.07-1.66,.1h0c.55-.17,1.11-.13,1.66-.1Z"/><path class="cls-23" d="M223.79,129.16c-.32,0-.65,0-.97,0-53.33,0-106.66,0-159.99,0-1.21,0-2.42,0-3.63,0-.26,0-.52,.02-.77-.08-.78,.4-1.32,1.09-1.92,1.7-.08,.09-.17,.17-.26,.26-.74,.7-1.45,1.45-2.18,2.17-.98,.98-1.95,1.98-2.93,2.96-.92,.93-1.86,1.85-2.78,2.78-1.06,1.06-2.1,2.13-3.17,3.19-1.21,1.2-2.44,2.39-3.66,3.59-.18,.18-.41,.35-.28,.66h87.73c31.4,0,62.81,0,94.21,.01,.5,0,.59-.13,.59-.6-.02-5.55-.01-11.09-.01-16.64Z"/><path class="cls-23" d="M58.44,129.07h0c.25,.11,.51,.08,.77,.08-.26,0-.52,.02-.77-.08Z"/><path class="cls-19" d="M81.04,62.45c-.23,0-.49-.05-.63,.22l.12,.1h0l.08,.08s0,.02,0,.02h0s0,.01,.01,.02c0,.01,.02,.02,.04,.02h.05v.06c.07,.07,.14,.14,.21,.21,.06,0,.08,.02,.09,.04,0,.02,0,.04-.01,.07v.03c2.02,2.02,4.07,4.04,6.1,6.07,4.63,4.62,9.25,9.24,13.88,13.86,.41,.41,.72,.92,1.22,1.23,.29,.08,.58,.13,.89,.13,40.1,0,80.2,0,120.3,0,.13,0,.26,0,.39,0v-22.15c-46.65,0-93.31,0-139.96,0-.93,0-1.86,0-2.79,0Z"/><path class="cls-12" d="M103.1,84.61c-.31,0-.6-.04-.89-.13,.08,.3-.12,.48-.31,.66-3.68,3.66-7.36,7.32-11.03,11-3.38,3.38-6.75,6.78-10.13,10.17-.09,.09-.19,.17-.28,.25-.03,.05-.05,.09-.08,.14,.93,.25,1.88,.16,2.82,.13,.13,0,.27,0,.4,0,42.72,.01,85.43,0,128.15,0,3.76,0,7.52,0,11.27,0,.25,0,.52,.06,.76-.07v-22.15c-.13,0-.26,0-.39,0-40.1,0-80.2,0-120.3,0Z"/><polygon class="cls-20" points="80.45 106.56 80.45 106.56 80.45 106.56 80.46 106.56 80.45 106.56"/><polygon class="cls-20" points="80.46 106.56 80.46 106.55 80.46 106.56 80.46 106.56"/><path class="cls-5" d="M42.62,144.17c.9-.89,1.77-1.81,2.66-2.7,.86-.87,1.74-1.72,2.62-2.58,.67-.66,1.34-1.32,2.01-1.99,.97-.97,1.93-1.94,2.89-2.91,1.27-1.28,2.5-2.59,3.8-3.83,1.3-1.23,2.55-2.49,3.8-3.76,1.25-1.27,2.55-2.5,3.78-3.79,.81-.85,1.66-1.68,2.5-2.51,.55-.54,1.12-1.06,1.64-1.63,.05-.05,.09-.1,.14-.15,.04-.04,.09-.08,.14-.12,.12-.09,.25-.15,.41-.17l.2-.23c.38-.79,1.11-1.27,1.69-1.89,.28-.29,.55-.59,.83-.89,.04-.05,.09-.09,.13-.14,.02-.02,.03-.03,.05-.05,.02-.01,.03-.03,.05-.04,.11-.09,.24-.15,.41-.14h0c0-.08,.02-.13,.05-.17,.02-.03,.05-.06,.09-.07,.03-.01,.07-.02,.11-.02h0c.14-.21,.28-.41,.43-.61,.07-.1,.15-.19,.23-.29,.39-.47,.84-.88,1.42-1.16,.06-.08,.13-.16,.19-.24,.05-.39,.3-.58,.59-.73,.1-.05,.2-.1,.3-.14l.02-.02c.03-.23,.17-.36,.37-.4,.03,0,.06-.01,.09-.02l.13-.14s0-.05,.02-.08c.04-.15,.12-.26,.28-.3,.03,0,.05,0,.09-.01h0c.57-1.02,1.5-1.72,2.31-2.51,.38-.37,.71-.87,1.28-1.03h0l.08-.14h0c.09-.08,.19-.16,.28-.25,3.38-3.39,6.75-6.78,10.13-10.17,3.67-3.67,7.35-7.33,11.03-11,.19-.18,.38-.36,.31-.66-.5-.32-.81-.83-1.22-1.23-4.63-4.62-9.25-9.24-13.88-13.86-2.03-2.03-4.07-4.04-6.11-6.07-.09-.02-.11-.06-.06-.14l-.21-.21h-.05v-.06s-.03-.01-.04-.02c0,0,0-.01-.01-.02h0s0-.02,0-.03c-.07,.01-.09-.02-.08-.08l-.12-.1c-.4-.4-.84-.77-1.16-1.24l-.13-.13c-.25-.1-.38-.31-.52-.51-.58-.57-1.16-1.13-1.75-1.7-.61-.59-1.21-1.18-1.81-1.78-3.56-3.55-7.11-7.11-10.66-10.66-2.07-2.08-4.14-4.16-6.21-6.24-2.17-2.16-4.33-4.31-6.5-6.47-2.84-2.83-5.69-5.66-8.52-8.5-.13-.13-.27-.27-.4-.4-.94-.92-1.91-1.82-2.74-2.85-5.59,0-11.18,0-16.77,0,1,1.02,1.99,2.04,2.99,3.06,.33,.34,.67,.68,1,1.01,3.74,3.74,7.5,7.46,11.24,11.19,5.27,5.26,10.54,10.53,15.8,15.79,4.5,4.5,9.01,9,13.51,13.5,4.26,4.26,8.52,8.51,12.77,12.77,1.54,1.54,3.07,3.09,4.63,4.61,.39,.38,.37,.61,0,.98-2.44,2.41-4.86,4.84-7.28,7.27-2.5,2.5-4.98,5.02-7.48,7.52-1.91,1.91-3.83,3.79-5.74,5.69-1.97,1.96-3.94,3.93-5.9,5.89-2.46,2.45-4.91,4.9-7.37,7.36-3.41,3.42-6.81,6.85-10.23,10.26-2.7,2.7-5.42,5.38-8.12,8.08-2.87,2.86-5.73,5.73-8.6,8.59-.18,.18-.41,.33-.44,.62h16.46c.66-.79,1.4-1.5,2.13-2.22Z"/><path class="cls-20" d="M76.85,59.09c-.61-.59-1.21-1.18-1.81-1.78,.6,.6,1.2,1.19,1.81,1.78Z"/><path class="cls-20" d="M40.01,22.19h0c.83,1.03,1.8,1.93,2.74,2.85-.94-.92-1.91-1.82-2.74-2.85Z"/><path class="cls-20" d="M80.62,62.87h0Z"/><path class="cls-20" d="M80.72,62.98l.21,.21h0c-.07-.07-.14-.14-.21-.21Z"/><path class="cls-20" d="M80.63,62.89s.02,.02,.04,.02h0s-.03-.01-.04-.02Z"/><path class="cls-20" d="M80.41,62.67l.12,.1h0l-.12-.1Z"/><path class="cls-20" d="M80.74,106.31c-.09,.09-.19,.17-.28,.25h0c.09-.08,.19-.16,.28-.25Z"/><polygon class="cls-20" points="80.46 106.56 80.46 106.56 80.45 106.56 80.45 106.56 80.46 106.56"/><path class="cls-20" d="M80.45,106.56l-.08,.14h0s.05-.09,.08-.14h0Z"/><polygon class="cls-20" points="80.45 106.56 80.45 106.56 80.46 106.55 80.45 106.56"/><polygon class="cls-20" points="80.46 106.56 80.46 106.55 80.45 106.56 80.46 106.56"/><path class="cls-26" d="M24.47,145.77c2.86-2.87,5.73-5.73,8.6-8.59,2.7-2.7,5.42-5.38,8.12-8.08,3.42-3.41,6.82-6.84,10.23-10.26,2.45-2.46,4.91-4.91,7.37-7.36,1.97-1.97,3.93-3.93,5.9-5.89,1.91-1.9,3.84-3.79,5.74-5.69,2.5-2.5,4.98-5.02,7.48-7.52,2.42-2.43,4.84-4.86,7.28-7.27,.38-.37,.4-.6,0-.98-1.56-1.52-3.09-3.07-4.63-4.61-4.26-4.26-8.52-8.51-12.77-12.77-4.5-4.5-9.01-9-13.51-13.5-5.27-5.26-10.53-10.53-15.8-15.79-3.74-3.73-7.5-7.45-11.24-11.19-.34-.34-.67-.67-1-1.01-1-1.01-1.99-2.04-2.99-3.06-4,0-8.01-.02-12.01-.02-1.51,0-3.01,0-4.52,.01,.87,1.13,1.96,2.05,2.95,3.06,3.23,3.26,6.5,6.5,9.75,9.74,5.52,5.52,11.04,11.04,16.57,16.56,5.48,5.47,10.96,10.95,16.43,16.42,5.37,5.37,10.74,10.74,16.13,16.09,.46,.45,.46,.69-.01,1.16-7.62,7.58-15.2,15.19-22.8,22.79-5.98,5.98-11.97,11.95-17.96,17.93-6.06,6.05-12.12,12.11-18.17,18.18-.74,.74-1.58,1.39-2.16,2.28H24.03c.03-.29,.26-.44,.44-.62Z"/><path class="cls-13" d="M9.6,144.11c6.05-6.07,12.11-12.12,18.17-18.18,5.98-5.98,11.97-11.95,17.96-17.93,7.6-7.6,15.19-15.2,22.8-22.79,.48-.47,.47-.71,.01-1.16-5.39-5.35-10.75-10.72-16.13-16.09-5.48-5.47-10.96-10.95-16.43-16.42-5.52-5.52-11.04-11.04-16.57-16.56-3.25-3.25-6.52-6.48-9.75-9.74-1-1.01-2.08-1.93-2.95-3.06-1.08,0-2.16,.01-3.24-.02-.47-.01-.58,.17-.58,.6,0,1.01,0,2.02,.01,3.03,0,3.02,0,6.05,.01,9.07,.4,.17,.74,.43,1.03,.73,.03,.03,.06,.06,.09,.09,.06,.06,.11,.12,.17,.18,.08,.09,.16,.18,.23,.27,1.4,1.73,3.2,3.06,4.61,4.78,.36,.44,.84,.8,1.28,1.18,.82,.7,1.43,1.61,2.22,2.33,1.21,1.1,2.24,2.39,3.46,3.44,1.62,1.39,2.81,3.21,4.6,4.41,.28,.18,.44,.53,.68,.77,1.76,1.8,3.47,3.65,5.31,5.36,1.45,1.35,2.85,2.76,4.22,4.17,1.57,1.62,3.31,3.08,4.75,4.83,.65,.78,1.61,1.29,2.21,2.13,.89,1.24,2.25,2,3.2,3.18,1.24,1.54,2.85,2.73,4.13,4.24,.84,1,1.97,1.73,2.83,2.73,1.21,1.43,2.71,2.57,3.91,4.02,.73,.88,.76,1.15-.03,1.95-1.43,1.46-2.98,2.8-4.36,4.29-1.09,1.19-2.34,2.2-3.42,3.39-1.04,1.14-2.19,2.16-3.25,3.26-1.87,1.95-3.82,3.82-5.72,5.74-1.39,1.4-2.86,2.72-4.18,4.19-.99,1.1-2.2,1.97-3.13,3.1-1.04,1.24-2.33,2.22-3.41,3.4-1.04,1.14-2.22,2.14-3.25,3.27-1.65,1.81-3.47,3.45-5.17,5.21-1.12,1.16-2.18,2.38-3.39,3.44-1.04,.9-1.9,1.96-2.93,2.86-1.19,1.05-2.22,2.29-3.32,3.44-.33,.34-.73,.59-1.08,.91-.61,.55-1.04,1.24-1.63,1.8-.18,.18-.4,.34-.65,.41,0,4.01-.01,8.03-.02,12.04H7.44c.58-.89,1.42-1.54,2.16-2.28Z"/><path class="cls-9" d="M2.92,133.85v-.29c0-5.18,0-10.36-.03-15.54,0-.73,.56-1.08,.95-1.46,1.54-1.5,2.97-3.11,4.54-4.57,1.43-1.34,2.81-2.73,4.17-4.13,1.7-1.77,3.48-3.47,5.22-5.2,1.66-1.65,3.3-3.33,4.97-4.98,1.75-1.72,3.46-3.47,5.2-5.2,1.44-1.44,2.81-2.97,4.36-4.31,1.05-.91,1.88-2.07,2.96-2.97,.56-.46,.52-.7,0-1.21-4.59-4.59-9.19-9.18-13.78-13.77-4-3.99-8-7.99-11.99-11.98-2.06-2.06-4.11-4.12-6.18-6.17-.28-.28-.42-.56-.42-.96,.02-5.2,.02-10.4,.02-15.6,0-.21,0-.42,0-.63,0-3.02,0-6.05-.01-9.07,0-1.01,0-2.02-.01-3.03,0-.44,.11-.62,.58-.6,1.08,.03,2.16,.02,3.24,.02,1.51,0,3.01-.01,4.52-.01,4,0,8.01,.01,12.01,.02,5.59,0,11.18,0,16.77,0,.24,0,.47-.02,.71-.02,61.02,0,122.04,0,183.06,0-.14-.27-.39-.12-.58-.12-73.27,0-146.54,0-219.81-.02-.51,0-.64,.07-.64,.62,.02,41.06,.02,82.11,.02,123.17,0,.17,0,.35,0,.52,0,.13,.09,.04,.13,.06,0-4.01,.01-8.03,.02-12.04,0-.17,0-.33,0-.5Z"/><path class="cls-4" d="M2.9,22.76c0,1.01,0,2.02,.01,3.03,0-1.01,0-2.02-.01-3.03Z"/><path class="cls-21" d="M223.02,106.83c-3.76,0-7.52,0-11.27,0-42.72,0-85.43,0-128.15,0-.13,0-.27,0-.4,0-.94,.03-1.89,.12-2.82-.13-.57,.16-.9,.66-1.28,1.03-.81,.79-1.74,1.49-2.31,2.51h.27l.5-.38c.02-.16,.12-.24,.27-.25h0l.13-.13c.02-.16,.1-.25,.26-.26h0l.39-.38c.08-.35,.29-.56,.63-.66,.5-.92,1.03-1.15,2.01-1.07,.9,.07,1.81,.04,2.72,.04,46.39,0,92.78,0,139.16,0,.22,0,.43,0,.65,.01v-.39c-.24,.13-.51,.07-.76,.07Z"/><path class="cls-21" d="M77.05,110.25h0l.5-.4-.5,.4Z"/><path class="cls-21" d="M77.96,109.47l-.13,.13h0l.13-.13Z"/><path class="cls-21" d="M78.61,108.83l-.39,.38h0l.39-.38Z"/><path class="cls-24" d="M83.97,107.13c-.91,0-1.82,.04-2.72-.04-.99-.08-1.51,.15-2.01,1.07h0c.36-.06,.61-.3,.87-.53,.17-.15,.38-.32,.57-.22,.67,.36,1.35,.09,2.02,.09,47.03,.01,94.05,.01,141.08,.01v-.39c-.22,0-.43-.01-.65-.01-46.39,0-92.78,0-139.16,0Z"/><polygon class="cls-24" points="79.24 108.17 79.24 108.17 79.24 108.17 79.24 108.17"/><path class="cls-18" d="M83.79,62.07c-.3,0-.61-.01-.91,0-1.17,.06-2.38,.33-3.38-.62-.01-.01-.03-.02-.05-.02-.06-.01-.14,0-.2,0h0c.32,.47,.76,.84,1.16,1.24,.14-.27,.4-.22,.63-.22,.93,0,1.86,0,2.79,0,46.65,0,93.31,0,139.96,0v-.39c-.15,0-.3,0-.45,0-46.52,0-93.03,0-139.55,0Z"/><path class="cls-18" d="M79.46,61.43c-.06-.01-.14,0-.2,0h0c.06,0,.15,0,.2,0Z"/><polygon class="cls-21" points="69.04 118.3 69.04 118.3 69.04 118.3 69.04 118.3"/><path class="cls-21" d="M41.55,145.73c1.22-1.2,2.44-2.39,3.66-3.59,1.06-1.06,2.11-2.13,3.17-3.19,.93-.93,1.86-1.85,2.78-2.78,.98-.99,1.95-1.98,2.93-2.96,.72-.73,1.44-1.47,2.18-2.17,.09-.08,.17-.17,.26-.26,.59-.61,1.13-1.3,1.92-1.7h0c.87-1.04,1.87-1.94,2.83-2.9,1.63-1.62,3.24-3.25,4.86-4.87,.82-.81,1.46-1.79,2.39-2.5,0-.16,.08-.25,.24-.25l.1-.09c.06-.06,.12-.11,.18-.17-.01-.09-.02-.18-.03-.27h0c-.16,.02-.29,.09-.41,.17-.05,.04-.1,.08-.14,.12-.05,.05-.1,.1-.14,.15-.52,.57-1.09,1.09-1.64,1.63-.84,.83-1.69,1.66-2.5,2.51-1.23,1.29-2.52,2.52-3.78,3.79-1.25,1.27-2.5,2.54-3.8,3.76-1.31,1.24-2.54,2.55-3.8,3.83-.96,.97-1.93,1.95-2.89,2.91-.67,.67-1.34,1.33-2.01,1.99-.87,.86-1.75,1.71-2.62,2.58-.89,.89-1.76,1.81-2.66,2.7-.73,.72-1.47,1.43-2.13,2.22h.78c-.13-.31,.1-.49,.28-.66Z"/><path class="cls-21" d="M69.04,118.3h0c-.06,.06-.12,.11-.18,.17l.18-.17h0Z"/><path class="cls-21" d="M58.43,129.07c-.78,.4-1.32,1.09-1.92,1.7,.59-.61,1.13-1.3,1.92-1.7h0Z"/><path class="cls-21" d="M68.6,118.2c.12-.09,.25-.15,.41-.17h0c-.16,.02-.29,.09-.41,.17Z"/><path class="cls-18" d="M79.11,61.11c-.02-.09-.05-.17-.1-.22l-.02-.02h-.01c-.09-.08-.21-.1-.37-.09h0c.15,.2,.28,.41,.52,.51,0-.07,0-.13-.01-.19Z"/><path class="cls-18" d="M78.98,60.88l.02,.02-.02-.02Z"/><path class="cls-18" d="M78.97,60.86c-.09-.07-.21-.09-.37-.07h0c.17-.02,.29,0,.37,.07Z"/><path class="cls-21" d="M69.65,117.76c.02-.15,.11-.24,.26-.26h0c.06-.23,.14-.44,.4-.51l.56-.51c0-.16,.07-.25,.22-.28h0c.03-.15,.12-.23,.28-.22,.1-.09,.19-.19,.29-.28-.01-.16,.06-.25,.22-.27h0c.04-.35,.42-.46,.51-.78h0c-.17-.01-.3,.05-.41,.14-.02,.01-.03,.03-.05,.04-.02,.02-.04,.03-.05,.05-.05,.05-.09,.09-.13,.14-.28,.3-.55,.59-.83,.89-.58,.61-1.31,1.1-1.69,1.89,.11,0,.22,0,.33,0,.03-.02,.07-.03,.11-.04Z"/><rect class="cls-21" x="71.08" y="116.21" width="0" height="0"/><polygon class="cls-21" points="69.91 117.5 69.91 117.5 69.91 117.5 69.91 117.5"/><path class="cls-21" d="M72.38,114.66h0c-.17-.01-.3,.05-.41,.14,.11-.09,.24-.15,.41-.14Z"/><path class="cls-21" d="M71.87,114.89s.03-.03,.05-.05c-.02,.02-.04,.03-.05,.05Z"/><path class="cls-21" d="M73.06,114.28c.28-.32,.39-.8,.89-.9,.17-.23,.36-.44,.58-.62,.07-.06,.15-.11,.24-.16l-.05-.27h0c-.57,.28-1.02,.7-1.42,1.16-.08,.09-.15,.19-.23,.29-.15,.2-.29,.4-.43,.6l.27,.02,.15-.12Z"/><path class="cls-21" d="M74.72,112.33h0c-.57,.28-1.02,.7-1.42,1.16,.39-.47,.84-.88,1.42-1.16Z"/><path class="cls-21" d="M73.07,113.78c.07-.1,.15-.19,.23-.29-.08,.09-.15,.19-.23,.29Z"/><path class="cls-24" d="M73.95,113.38c-.5,.1-.61,.58-.89,.9,.1,0,.19-.03,.27-.07,.34-.15,.45-.52,.62-.83Z"/><path class="cls-24" d="M76.4,110.63l-.13,.14c.01,.09,.03,.18,.04,.27,.42-.1,.68-.35,.74-.79h-.27c0,.25-.12,.38-.38,.38Z"/><path class="cls-24" d="M75.49,111.8c-.2,.1-.39,.19-.59,.29h0l-.19,.24,.05,.27s.09-.04,.13-.06c.29-.16,.5-.39,.63-.7l-.02-.03h0Z"/><path class="cls-24" d="M74.89,112.54c.29-.16,.5-.39,.63-.7h0c-.13,.32-.34,.55-.63,.7Z"/><path class="cls-24" d="M74.9,112.09h0c-.06,.08-.12,.16-.19,.24h0l.19-.24Z"/><path class="cls-24" d="M75.49,111.8h0l.02,.03c.38-.05,.62-.24,.64-.64-.11,0-.23,0-.34,0h0l-.02,.02c.02,.26-.25,.37-.3,.58Z"/><polygon class="cls-24" points="75.81 111.19 75.81 111.19 75.79 111.22 75.81 111.19 75.81 111.19"/><polygon class="cls-24" points="75.49 111.81 75.49 111.8 75.49 111.8 75.49 111.81"/><path class="cls-24" d="M71.87,115.43c.11-.02,.2-.06,.28-.11,.23-.15,.36-.42,.53-.64v-.02l-.03-.02h-.27c-.09,.31-.47,.43-.51,.78Z"/><path class="cls-24" d="M72.14,115.33c.23-.15,.36-.42,.53-.64h0c-.17,.22-.3,.49-.53,.64Z"/><polygon class="cls-24" points="72.38 114.66 72.38 114.66 72.38 114.66 72.38 114.66"/><path class="cls-24" d="M69.04,118.3c.26-.06,.43-.23,.5-.49-.11,0-.22,0-.33,0l-.2,.23,.03,.27Z"/><path class="cls-24" d="M69.21,117.8l-.2,.23h0l.2-.23Z"/><path class="cls-24" d="M69.01,118.03h0c.01,.09,.02,.18,.03,.27h0l-.03-.27Z"/><path class="cls-24" d="M79.24,108.17h0c-.34,.1-.56,.31-.63,.66,.04-.01,.09-.02,.13-.04,.28-.1,.46-.3,.51-.62Z"/><path class="cls-24" d="M78.73,108.79c.28-.1,.46-.3,.51-.62h0c-.05,.32-.23,.52-.51,.62Z"/><polygon class="cls-24" points="79.24 108.17 79.24 108.17 79.24 108.17 79.24 108.17 79.24 108.17"/><polygon class="cls-24" points="79.24 108.17 79.24 108.17 79.24 108.17 79.24 108.17"/><polygon class="cls-24" points="79.24 108.17 79.24 108.17 79.24 108.17 79.24 108.17"/><polygon class="cls-24" points="79.24 108.17 79.24 108.17 79.24 108.17 79.24 108.17"/><polygon class="cls-24" points="79.24 108.17 79.24 108.17 79.24 108.17 79.24 108.17 79.24 108.17"/><path class="cls-24" d="M70.31,116.99c-.26,.07-.34,.28-.4,.51h0c.1,0,.18-.03,.24-.07,.13-.09,.17-.24,.16-.43Z"/><polygon class="cls-24" points="69.91 117.5 69.91 117.5 69.91 117.5 69.91 117.5"/><path class="cls-21" d="M75.81,111.19c.11,0,.23,0,.34,0,.05-.05,.1-.1,.15-.15-.01-.09-.03-.18-.04-.27h0s-.06,0-.09,.02c-.2,.05-.34,.17-.37,.4Z"/><path class="cls-21" d="M76.18,110.79c-.2,.05-.34,.17-.37,.4h0c.03-.23,.17-.36,.37-.4Z"/><path class="cls-21" d="M76.27,110.77c.01,.09,.03,.18,.04,.27-.01-.09-.03-.18-.04-.27h0Z"/><path class="cls-24" d="M72.64,114.66h0v.02l.03,.02s.09-.04,.13-.07c.06-.05,.1-.12,.11-.21l-.27-.02h0v.27h.01Z"/><path class="cls-24" d="M72.64,114.66v0h0Z"/><path class="cls-24" d="M71.65,115.71c.07-.02,.12-.06,.15-.1,.02-.03,.04-.07,.05-.11,0-.02,0-.04,.01-.06h0c-.16,.02-.23,.11-.22,.27Z"/><path class="cls-24" d="M71.85,115.5s0-.04,.01-.06h0s0,.04-.01,.06Z"/><path class="cls-24" d="M71.36,115.99c-.16-.01-.25,.06-.28,.22,.03,0,.07,0,.1-.02,.09-.03,.15-.09,.18-.2Z"/><path class="cls-24" d="M70.87,116.48c.08-.03,.14-.07,.18-.14,.01-.03,.02-.06,.03-.09,0-.02,0-.03,0-.05-.15,.03-.23,.12-.22,.28Z"/><path class="cls-24" d="M71.08,116.26s0-.03,0-.05h0s0,.03,0,.05Z"/><path class="cls-24" d="M71.08,116.26s-.02,.06-.03,.09c.01-.03,.02-.06,.03-.09Z"/><path class="cls-24" d="M69.91,117.5c-.15,.02-.24,.11-.26,.26,.04,0,.08-.01,.11-.02,.09-.04,.14-.12,.15-.24Z"/><path class="cls-24" d="M69.76,117.74c.09-.04,.14-.12,.15-.24h0c-.01,.12-.06,.2-.15,.24Z"/><path class="cls-24" d="M78.21,109.21c-.16,.02-.24,.1-.26,.26,.08,0,.14-.04,.18-.08,.04-.04,.07-.1,.08-.18Z"/><path class="cls-24" d="M78.21,109.21h0c0,.08-.04,.14-.08,.18,.04-.04,.07-.1,.08-.18Z"/><path class="cls-24" d="M68.76,118.56c-.17,0-.24,.09-.24,.25,.02,0,.03,0,.05-.01,.11-.04,.17-.12,.2-.24Z"/><path class="cls-24" d="M77.77,109.75s.05-.09,.05-.15c-.16,.01-.25,.09-.27,.25,.1,0,.17-.04,.22-.1Z"/><path class="cls-24" d="M77.83,109.6h0c0,.06-.03,.11-.05,.15,.03-.04,.05-.09,.05-.15Z"/><path class="cls-18" d="M81.02,63.23s-.03-.04-.09-.04h0c-.05,.08-.02,.12,.06,.14v-.03s.03-.05,.03-.07Z"/><path class="cls-18" d="M81.02,63.23s-.03-.04-.09-.04h0c.06,0,.08,.02,.09,.04Z"/><polygon class="cls-18" points="80.67 62.91 80.67 62.91 80.67 62.97 80.72 62.98 80.72 62.92 80.67 62.91"/><polygon class="cls-18" points="80.72 62.92 80.67 62.91 80.67 62.91 80.67 62.91 80.72 62.92"/><path class="cls-18" d="M80.53,62.76c-.01,.06,.01,.09,.08,.08l-.08-.08h0Z"/><polygon class="cls-18" points="80.53 62.76 80.53 62.76 80.53 62.76 80.53 62.76"/><polygon class="cls-21" points="80.45 106.56 80.45 106.56 80.45 106.56 80.45 106.56"/><polygon class="cls-21" points="80.46 106.55 80.45 106.56 80.45 106.56 80.46 106.55"/><path class="cls-21" d="M74.9,112.09c.2-.1,.39-.19,.59-.29h0c.05-.22,.32-.33,.3-.58-.1,.05-.2,.09-.3,.14-.29,.15-.54,.34-.59,.73Z"/><path class="cls-21" d="M75.49,111.36c-.29,.15-.54,.34-.59,.73h0c.05-.39,.3-.58,.59-.73Z"/><path class="cls-21" d="M75.49,111.8h0c-.2,.1-.39,.19-.59,.29h0c.2-.1,.39-.19,.59-.29h0Z"/><polygon class="cls-21" points="74.9 112.09 74.9 112.09 74.9 112.09 74.9 112.09"/><path class="cls-21" d="M76.78,110.24s-.06,0-.09,.01c-.16,.04-.24,.14-.28,.3,0,.03-.01,.05-.02,.08h0c.26,0,.38-.13,.38-.39Z"/><path class="cls-21" d="M76.41,110.55s-.01,.05-.02,.08h0s0-.05,.02-.08Z"/><path class="cls-21" d="M72.64,114.66v-.27c-.05,0-.09,.01-.12,.02-.04,.02-.07,.04-.09,.07-.03,.04-.05,.1-.05,.17h.26Z"/><path class="cls-21" d="M72.43,114.49s-.05,.1-.05,.17h0c0-.07,.02-.12,.05-.17Z"/><path class="cls-14" d="M2.92,35.49c.67,.83,1.57,1.44,2.32,2.18,.11,.11,.21,.21,.31,.33,.84,.95,1.69,1.88,2.65,2.71,.85,.73,1.53,1.62,2.28,2.43,.38,.41,.84,.73,1.25,1.1,1.06,.93,1.88,2.1,2.99,2.99,1.28,1.02,2.14,2.45,3.43,3.46,1.22,.94,2.12,2.2,3.22,3.27,1.71,1.67,3.45,3.33,5.07,5.08,.62,.67,1.3,1.3,2.02,1.88,.67,.54,1.17,1.3,1.79,1.93,.39,.4,.84,.73,1.22,1.14,.83,.89,1.67,1.78,2.53,2.64,.56,.55,1.22,.99,1.73,1.61,.81,.99,1.76,1.85,2.76,2.68,.6,.5,1.02,1.25,1.64,1.78,1.74,1.47,3.04,3.37,4.87,4.75,.57,.43,.95,1.09,1.46,1.62,.59,.61,1.18,1.18,1.89,1.65,.01,0,.02,.01,.03,.02,.06,.06,.1,.16,.15,.24,.22,.05,.36,.19,.51,.34,.02,.02,.04,.04,.06,.06,.86,.87,1.73,1.73,2.58,2.6,.55,.56,.51,.84-.06,1.39-.84,.8-1.65,1.63-2.48,2.44-.18,.18-.33,.4-.62,.44h0c0,.42-.34,.53-.6,.73-.06,.05-.11,.1-.16,.16-.35,.47-.73,.95-1.3,1.2h0c-.23,.43-.53,.77-.9,1.05-.12,.09-.26,.18-.39,.25l-.13,.13c-.75,.87-1.47,1.75-2.35,2.49-.2,.17-.41,.33-.63,.48l-.24,.28c-.43,.62-.94,1.18-1.55,1.62-.09,.06-.18,.12-.27,.18h0c-.2,.48-.57,.82-.94,1.15-.12,.11-.25,.22-.36,.33-.62,.6-1.15,1.32-1.92,1.77l-.14,.13c-.3,.57-.77,1-1.23,1.44-.06,.06-.13,.13-.19,.19-.49,.49-1.05,.93-1.48,1.49-.13,.17-.28,.24-.49,.24l-.12,.14c-.18,.42-.47,.74-.86,.95-.06,.03-.11,.06-.18,.08l-.26,.26c-.3,.48-.65,.9-1.06,1.28-.24,.23-.5,.44-.78,.63-.16,.11-.32,.23-.47,.36-.25,.21-.48,.45-.68,.7,0,.11,0,.21-.05,.31-.03,.05-.07,.1-.12,.15-.64,.5-1.2,1.07-1.7,1.7-.12,.15-.28,.18-.46,.17-.07,.06-.15,.11-.22,.17-.21,.18-.4,.38-.55,.61,0,.23-.09,.36-.3,.39-.03,0-.06,0-.09,0h0c-.12,.31-.31,.55-.55,.75-.14,.12-.31,.21-.49,.29-.15,.08-.26,.19-.37,.31-.18,.2-.32,.43-.54,.59-.12,.31-.31,.55-.55,.75-.14,.12-.3,.21-.48,.3-.04,.13-.12,.22-.26,.26-.42,.66-.99,1.17-1.54,1.71-.08,.08-.15,.16-.23,.23-1.04,1.09-2.2,2.06-3.17,3.22-.31,.37-.7,.71-1.17,.9l-.64,.66c-.24,.39-.49,.77-.85,1.03-.1,.07-.21,.13-.32,.18-.08,.03-.16,.06-.25,.08-.22,.55-.68,.88-1.1,1.23-.06,.05-.11,.09-.16,.14-.15,.14-.29,.29-.41,.46-.15,.38-.48,.58-.79,.8-.04,.03-.09,.06-.13,.09l-.13,.14c-.11,.34-.33,.57-.63,.72-.04,.02-.09,.04-.14,.06l-.13,.13c-.13,.41-.44,.67-.74,.93-.1,.09-.2,.18-.29,.27-1.02,1.06-2.07,2.08-3.12,3.11-.1,.1-.25,.15-.38,.23l-.13,.14c-.47,.66-1.01,1.26-1.66,1.74-.09,.07-.19,.13-.29,.2h0c-.11,.34-.34,.57-.64,.73-.04,.02-.09,.04-.13,.06h0v.5c.26-.07,.47-.23,.66-.41,.58-.56,1.02-1.25,1.63-1.8,.35-.32,.75-.57,1.08-.91,1.11-1.15,2.13-2.38,3.32-3.44,1.03-.91,1.89-1.96,2.93-2.86,1.21-1.05,2.27-2.28,3.39-3.44,1.7-1.76,3.52-3.4,5.17-5.21,1.04-1.13,2.21-2.13,3.25-3.27,1.08-1.18,2.37-2.16,3.41-3.4,.94-1.12,2.14-2,3.13-3.1,1.32-1.46,2.79-2.79,4.18-4.19,1.9-1.92,3.85-3.79,5.72-5.74,1.06-1.11,2.21-2.13,3.25-3.26,1.08-1.18,2.32-2.2,3.42-3.39,1.38-1.49,2.93-2.84,4.36-4.29,.79-.8,.76-1.07,.03-1.95-1.2-1.45-2.69-2.59-3.91-4.02-.85-1-1.99-1.73-2.83-2.73-1.28-1.51-2.89-2.7-4.13-4.24-.95-1.18-2.31-1.93-3.2-3.18-.6-.85-1.57-1.35-2.21-2.13-1.44-1.75-3.18-3.21-4.75-4.83-1.37-1.41-2.77-2.82-4.22-4.17-1.84-1.71-3.55-3.56-5.31-5.36-.24-.25-.4-.59-.68-.77-1.79-1.2-2.97-3.02-4.6-4.41-1.22-1.05-2.26-2.34-3.46-3.44-.79-.72-1.4-1.63-2.22-2.33-.44-.38-.92-.73-1.28-1.18-1.41-1.72-3.21-3.05-4.61-4.78-.07-.09-.15-.18-.23-.27-.05-.06-.11-.12-.17-.18-.03-.03-.06-.06-.09-.09-.3-.29-.64-.56-1.03-.73h0c0,.21,0,.42,0,.63Z"/><path class="cls-14" d="M3.95,35.59c-.3-.29-.64-.56-1.03-.73h0c.4,.17,.74,.43,1.03,.73Z"/><path class="cls-14" d="M4.04,35.68c.06,.06,.11,.12,.17,.18-.05-.06-.11-.12-.17-.18Z"/><path class="cls-14" d="M2.92,133.85h0c0,.17,0,.33,0,.5v-.5h0Z"/><path class="cls-3" d="M3.7,133.07h0c.28-.79,1.35-1.86,1.94-1.94,.04-.05,.08-.09,.13-.14-.02-.25,.16-.39,.31-.54,1.25-1.28,2.5-2.55,3.75-3.84,.13-.14,.29-.18,.47-.17l.13-.13c.07-.45,.32-.71,.77-.77l.13-.14c.05-.56,.34-.87,.92-.89,.12-.17,.26-.32,.41-.46,.05-.05,.1-.09,.16-.14,.43-.35,.89-.68,1.1-1.23,.4-.52,.79-1.05,1.43-1.29,.21-.22,.42-.44,.64-.66,0-.18,.04-.34,.18-.46,1.42-1.16,2.54-2.63,3.92-3.85,.42-.37,.86-.82,1.22-1.3,.19-.25,.4-.52,.79-.46,.13-.04,.22-.13,.26-.26,.19-.49,.47-.91,1.03-1.05,.22-.16,.37-.39,.54-.59,.11-.12,.22-.23,.37-.31,.2-.49,.47-.91,1.03-1.04h0c0-.09,.03-.17,.07-.23,.03-.04,.06-.07,.1-.1s.09-.04,.14-.05c.03,0,.06,0,.09-.01,.16-.23,.34-.43,.55-.61,.07-.06,.14-.12,.22-.17,.64-.91,1.38-1.72,2.33-2.33h0c.21-.26,.44-.49,.68-.7,.15-.13,.31-.25,.47-.36,.4-.84,1.03-1.46,1.84-1.91l.26-.26c.18-.51,.53-.85,1.04-1.04l.12-.14c.47-.8,1.16-1.39,1.85-1.99,.29-.24,.47-.6,.73-.88,.22-.23,.46-.45,.81-.48,.05-.04,.09-.08,.14-.13-.03-.24-.04-.47,.19-.64,.85-.62,1.58-1.38,2.28-2.16,.2-.22,.43-.42,.75-.45h0c.02-.13,0-.29,.06-.37,.45-.48,.91-.94,1.39-1.38,.07-.07,.24-.04,.37-.05,.08-.09,.16-.18,.24-.28,.06-.42,.39-.68,.66-.92,.62-.56,1.18-1.16,1.71-1.8,.17-.2,.38-.27,.63-.25,.04-.04,.09-.09,.13-.13,.18-.68,.69-1.03,1.29-1.29h0c.02-.11,.01-.24,.08-.31,.61-.65,1.1-1.43,1.99-1.78h0c0-.19,.11-.32,.23-.44,.91-.94,1.73-1.97,2.81-2.74,.32-.23,.16-.55-.02-.73-.68-.7-1.4-1.36-2.1-2.04-.39-.38-.75-.78-.91-1.32-.05-.08-.09-.18-.15-.24,0,0-.02-.02-.03-.02-.7-.47-1.3-1.04-1.89-1.65-.51-.53-.89-1.19-1.46-1.62-1.83-1.39-3.13-3.29-4.87-4.75-.62-.53-1.04-1.27-1.64-1.78-.99-.83-1.95-1.68-2.76-2.68-.51-.62-1.17-1.06-1.73-1.61-.86-.86-1.7-1.74-2.53-2.64-.38-.41-.83-.75-1.22-1.14-.62-.63-1.12-1.38-1.79-1.93-.72-.58-1.4-1.21-2.02-1.88-1.63-1.76-3.36-3.41-5.07-5.08-1.09-1.07-2-2.32-3.22-3.27-1.3-1-2.16-2.44-3.43-3.46-1.11-.88-1.93-2.05-2.99-2.99-.42-.37-.87-.69-1.25-1.1-.76-.82-1.43-1.7-2.28-2.43-.96-.82-1.81-1.76-2.65-2.71-.1-.11-.2-.22-.31-.33-.75-.74-1.65-1.34-2.32-2.18,0,5.2,0,10.4-.02,15.6,0,.4,.14,.69,.42,.96,2.06,2.05,4.12,4.11,6.18,6.17,4,3.99,8,7.99,11.99,11.98,4.59,4.59,9.19,9.18,13.78,13.77,.52,.52,.55,.75,0,1.21-1.08,.9-1.91,2.05-2.96,2.97-1.55,1.34-2.92,2.87-4.36,4.31-1.73,1.73-3.45,3.49-5.2,5.2-1.67,1.64-3.31,3.33-4.97,4.98-1.74,1.73-3.51,3.43-5.22,5.2-1.35,1.41-2.74,2.79-4.17,4.13-1.57,1.47-3,3.08-4.54,4.57-.4,.38-.96,.74-.95,1.46,.02,5.18,.02,10.36,.02,15.54,.28-.13,.41-.5,.78-.49Z"/><path class="cls-8" d="M28.82,107.92h0c.21-.26,.44-.49,.68-.7-.25,.21-.48,.45-.68,.7Z"/><path class="cls-15" d="M3.06,133.79c.3-.15,.53-.38,.64-.72-.37-.01-.5,.36-.78,.49v.29s.09-.04,.14-.06Z"/><path class="cls-15" d="M2.92,133.56v.29h0v-.29Z"/><path class="cls-15" d="M48.55,80.96c.17,.54,.52,.94,.91,1.32,.7,.68,1.42,1.34,2.1,2.04,.17,.18,.34,.5,.02,.73-1.08,.77-1.9,1.8-2.81,2.74-.12,.13-.23,.25-.23,.44,.28-.04,.44-.26,.62-.44,.83-.81,1.64-1.64,2.48-2.44,.57-.55,.61-.83,.06-1.39-.86-.87-1.72-1.74-2.58-2.6-.02-.02-.04-.04-.06-.06-.14-.15-.29-.3-.51-.34Z"/><path class="cls-15" d="M22.1,114.68c-.39-.06-.6,.21-.79,.46-.36,.48-.79,.93-1.22,1.3-1.38,1.22-2.49,2.69-3.92,3.85-.15,.12-.19,.28-.18,.46,.47-.19,.87-.53,1.17-.9,.97-1.16,2.13-2.14,3.17-3.22,.08-.08,.15-.16,.23-.23,.54-.54,1.12-1.06,1.54-1.71Z"/><path class="cls-15" d="M10.3,126.45c-.18,0-.33,.03-.47,.17-1.25,1.28-2.5,2.56-3.75,3.84-.15,.15-.33,.29-.31,.54,.13-.07,.28-.13,.38-.23,1.05-1.03,2.1-2.06,3.12-3.11,.09-.09,.19-.18,.29-.27,.3-.26,.61-.52,.74-.93Z"/><path class="cls-15" d="M39.99,96.8c-.32,.03-.55,.23-.75,.45-.7,.78-1.43,1.53-2.28,2.16-.23,.17-.23,.4-.19,.64,.77-.44,1.3-1.16,1.92-1.77,.12-.11,.24-.22,.36-.33,.37-.33,.74-.67,.94-1.15Z"/><path class="cls-15" d="M36.62,100.17c-.35,.03-.59,.25-.81,.48-.26,.28-.45,.64-.73,.88-.69,.6-1.38,1.19-1.85,1.99,.21,0,.36-.06,.49-.24,.43-.56,.99-.99,1.48-1.49,.06-.06,.13-.13,.19-.19,.45-.44,.92-.87,1.23-1.44Z"/><path class="cls-15" d="M45.05,91.75c-.25-.02-.46,.04-.63,.25-.53,.64-1.09,1.24-1.71,1.8-.27,.24-.6,.5-.66,.92,.22-.15,.43-.31,.63-.48,.88-.73,1.61-1.62,2.35-2.49Z"/><path class="cls-15" d="M5.64,131.13c-.59,.08-1.67,1.15-1.94,1.94,.1-.06,.19-.13,.29-.2,.65-.48,1.19-1.07,1.66-1.74Z"/><path class="cls-15" d="M48.54,88.24c-.88,.35-1.38,1.12-1.99,1.78-.06,.07-.05,.2-.08,.3,.57-.25,.95-.73,1.3-1.2,.04-.06,.1-.11,.16-.16,.26-.2,.61-.31,.6-.73Z"/><path class="cls-15" d="M28.82,107.92c-.95,.6-1.69,1.42-2.33,2.33,.18,.01,.34-.02,.46-.17,.5-.64,1.07-1.2,1.7-1.7,.06-.04,.1-.09,.12-.15,.05-.09,.06-.2,.05-.31Z"/><path class="cls-15" d="M28.78,108.22c.05-.09,.06-.2,.05-.31h0c0,.11,0,.21-.05,.31Z"/><path class="cls-15" d="M41.81,94.99c-.12,.01-.29-.02-.37,.05-.48,.45-.94,.91-1.39,1.38-.07,.07-.04,.24-.06,.36,.09-.06,.18-.12,.27-.18,.61-.44,1.12-.99,1.55-1.62Z"/><path class="cls-15" d="M31.81,104.94c-.8,.45-1.43,1.08-1.84,1.91,.28-.19,.54-.4,.78-.63,.4-.38,.75-.81,1.06-1.28Z"/><path class="cls-15" d="M15.36,121.4c-.64,.25-1.03,.78-1.43,1.29,.09-.02,.17-.05,.25-.08,.12-.05,.22-.11,.32-.18,.36-.26,.61-.64,.85-1.03Z"/><path class="cls-15" d="M46.47,90.32c-.6,.26-1.11,.61-1.29,1.29,.14-.08,.27-.16,.39-.25,.37-.27,.67-.62,.9-1.04Z"/><path class="cls-15" d="M23.39,113.36c-.56,.14-.83,.55-1.03,1.05,.18-.08,.34-.18,.48-.3,.24-.19,.43-.44,.55-.75Z"/><path class="cls-15" d="M25.33,111.42c-.56,.13-.83,.55-1.03,1.04,.18-.08,.34-.18,.49-.29,.24-.19,.42-.44,.55-.75Z"/><path class="cls-15" d="M33.11,103.65c-.51,.18-.86,.52-1.04,1.04,.06-.03,.12-.05,.18-.08,.39-.21,.68-.53,.86-.95Z"/><path class="cls-15" d="M12.26,124.53c-.58,.02-.87,.33-.92,.89,.04-.03,.09-.06,.13-.09,.31-.22,.64-.41,.79-.8Z"/><path class="cls-15" d="M11.2,125.55c-.45,.07-.7,.33-.77,.77,.05-.02,.09-.04,.14-.06,.3-.15,.52-.38,.63-.72Z"/><path class="cls-15" d="M25.72,111.03s-.06,0-.09,.01c-.05,.01-.1,.03-.14,.05s-.07,.06-.1,.1c-.04,.06-.06,.13-.07,.23,.03,0,.06,0,.09,0,.2-.02,.3-.15,.3-.39Z"/><path class="cls-15" d="M25.33,111.42h0c0-.09,.03-.17,.07-.23-.04,.06-.06,.13-.07,.23Z"/></g></g><g class="cls-29"><g><path class="cls-1" d="M1.1,102.22c.14-.09,.18-.26,.17-.46l.58-.53-.58,.53c0,.2-.04,.37-.17,.46Z"/><path class="cls-1" d="M2.19,100.92c.09-.03,.16-.1,.19-.21l.3-.3c-.1,.1-.2,.2-.3,.3-.03,.11-.1,.17-.19,.21Z"/><path class="cls-1" d="M-.06,103.13H-.06c.28-.07,.45-.24,.53-.52,.04-.02,.07-.03,.11-.05-.04,.01-.08,.03-.11,.05-.07,.28-.25,.45-.53,.52Z"/><polygon class="cls-1" points=".86 102.29 .86 102.29 .86 102.29 .86 102.29"/><path class="cls-1" d="M3.88,99.27c.06-.05,.1-.12,.11-.22l.16-.13-.16,.13c-.01,.09-.05,.17-.11,.22Z"/><path class="cls-1" d="M5.09,97.98c-.17,.33-.3,.72-.65,.88,.35-.16,.48-.54,.65-.88,.18-.24,.37-.47,.61-.65-.23,.18-.43,.41-.61,.65Z"/><path class="cls-1" d="M6.74,96.35h0l-.02-.03,.02,.03Z"/><path class="cls-1" d="M10.4,42.91c.06,.06,.09,.13,.11,.23-.02-.1-.05-.17-.11-.23Z"/><polygon class="cls-1" points="2.9 100.13 2.91 100.13 2.9 100.13 2.9 100.13"/><path class="cls-1" d="M3.75,99.35h0v0Z"/><path class="cls-1" d="M3.45,99.31h0Z"/><path class="cls-1" d="M14.8,91.1c-.99,.03-1.98,.12-2.96-.14h0c.98,.26,1.97,.16,2.96,.14Z"/><path class="cls-1" d="M10.52,43.33l.14,.13h0l-.14-.13Z"/><path class="cls-1" d="M10.36,42.88h0Z"/><path class="cls-1" d="M12,44.87l.08,.08-.08-.08h0Z"/><path class="cls-1" d="M8.14,41.02c.61,.59,1.22,1.19,1.83,1.78h0c-.61-.6-1.22-1.19-1.83-1.78Z"/><path class="cls-1" d="M12.5,45.44s.02-.05,.01-.07c0,.02,0,.05-.01,.07Z"/><path class="cls-1" d="M2.89,100.2s-.03,.08-.05,.11c.02-.03,.04-.07,.05-.11Z"/><path class="cls-1" d="M2.19,100.92s-.06,.02-.1,.02c.04,0,.07,0,.1-.02Z"/><path class="cls-1" d="M7.57,95.52c-.05,.05-.11,.11-.16,.16l.16-.16c.44-.1,.72-.37,.78-.83h0c-.06,.46-.33,.73-.78,.83Z"/><path class="cls-1" d="M3.6,99.06s-.07,.04-.1,.08c.02-.03,.05-.06,.1-.08Z"/><path class="cls-1" d="M12.1,45s0-.01-.01-.02c0,0,0,.01,.01,.02Z"/><path class="cls-1" d="M12.09,44.98s0-.02,0-.03c0,0,0,.02,0,.03Z"/><path class="cls-1" d="M7.66,95.09h0l-.14,.15h0l.14-.15Z"/><polygon class="cls-1" points="3.45 99.31 3.45 99.31 3.45 99.31 3.45 99.31"/><path class="cls-1" d="M2.96,99.5s.03-.03,.05-.04c-.02,.01-.03,.03-.05,.04Z"/><path class="cls-1" d="M7.97,94.7c-.17,.04-.25,.15-.29,.31,.04-.16,.13-.27,.29-.31Z"/><path class="cls-10" d="M-9.3,21.32c-.09,0-.18,0-.27,0-.05,0-.09,0-.14,0-.58-.02-1.17-.07-1.75,.11,2.17,2.18,4.34,4.37,6.51,6.54,3.72,3.73,7.45,7.46,11.18,11.19,.63,.63,1.26,1.25,1.9,1.87,.61,.59,1.22,1.19,1.83,1.78,.17-.02,.3,.01,.39,.08h.01s.01,.02,.02,.03c.06,.06,.09,.13,.11,.23,.01,.06,.01,.12,.01,.19l.14,.13c.07,0,.15,0,.21,0,.02,0,.04,.01,.05,.02,1.04,1,2.31,.71,3.54,.65,.32-.02,.63,0,.95,0,48.8,0,97.6,0,146.41,0,.16,0,.32,0,.48,0V21.3c-.36,0-.72,.01-1.09,.01-56.84,0-113.67,0-170.51,0Z"/><path class="cls-22" d="M14.28,91.83c-.7,0-1.42,.28-2.12-.1-.21-.11-.42,.07-.6,.23-.27,.24-.53,.49-.91,.55-.06,.33-.24,.54-.53,.65-.04,.02-.09,.03-.13,.04l-.41,.4c-.01,.08-.04,.14-.08,.19-.04,.05-.11,.07-.19,.08l-.14,.13c0,.06-.03,.11-.06,.15-.05,.07-.13,.1-.23,.11l-.53,.42c-.06,.46-.33,.73-.78,.83l-.16,.16c-.02,.42-.27,.62-.67,.67h0c-.13,.33-.36,.57-.66,.74-.04,.02-.09,.05-.13,.07-.09,.05-.17,.11-.25,.17-.23,.18-.43,.41-.61,.65-.17,.33-.3,.72-.65,.88-.08,.04-.18,.06-.28,.07l-.16,.13c-.01,.09-.05,.17-.11,.22-.04,.03-.08,.06-.13,.08h0c-.18,.23-.31,.51-.56,.67-.08,.05-.18,.09-.29,.11h0s0,.05-.01,.07c-.01,.04-.03,.08-.05,.11-.04,.05-.09,.08-.16,.11l-.3,.3c-.03,.11-.1,.17-.19,.21-.03,.01-.06,.02-.1,.02h0s0,.04,0,.05c0,.03-.02,.06-.03,.09-.04,.07-.1,.12-.19,.14l-.58,.53c0,.2-.04,.37-.17,.46-.06,.04-.14,.07-.25,.07h0c-.01,.13-.06,.21-.16,.25-.03,.01-.07,.02-.11,.03-.04,.01-.08,.03-.11,.05-.07,.28-.25,.45-.53,.52h0l-.19,.18-.1,.1c-.03,.13-.09,.21-.2,.25-.02,0-.03,.01-.05,.01-.98,.74-1.65,1.77-2.5,2.62-1.71,1.7-3.4,3.41-5.1,5.11-1,1-2.06,1.95-2.97,3.04,.26,.11,.53,.09,.8,.09,1.27,0,2.54,0,3.81,0,55.95,0,111.9,0,167.85,0,.34,0,.68,0,1.02,0v-22.7c-49.34,0-98.68,0-148.02-.01Z"/><path class="cls-16" d="M-30.51,2.3h0c.87,1.08,1.89,2.02,2.88,2.99,.14,.14,.28,.28,.42,.42,2.97,2.98,5.96,5.95,8.94,8.92,2.27,2.26,4.55,4.53,6.82,6.79h0c.58-.18,1.16-.13,1.75-.11,.05,0,.09,0,.14,0,.09,0,.18,0,.27,0,56.84,0,113.67,0,170.51,0,.36,0,.72,0,1.09-.01V2.28c-64.02,0-128.04,0-192.06,0-.25,0-.5,.01-.75,.02Z"/><path class="cls-11" d="M162.29,114.53c-.34,0-.68,0-1.02,0-55.95,0-111.9,0-167.85,0-1.27,0-2.54,0-3.81,0-.27,0-.55,.02-.8-.09-.82,.42-1.39,1.14-2.01,1.79-.09,.09-.18,.18-.27,.27-.78,.74-1.52,1.52-2.28,2.28-1.03,1.03-2.05,2.07-3.07,3.11-.97,.98-1.95,1.94-2.92,2.92-1.11,1.11-2.21,2.24-3.32,3.34-1.27,1.26-2.56,2.51-3.84,3.77-.19,.18-.43,.36-.29,.69H62.85c32.95,0,65.89,0,98.84,.01,.52,0,.62-.14,.62-.63-.02-5.82-.01-11.64-.01-17.46Z"/><path class="cls-7" d="M12.53,44.54c-.24,0-.51-.06-.66,.23l.13,.1h0l.08,.08s0,.02,0,.03h0s0,.01,.01,.02c0,.01,.02,.02,.04,.03h.05v.07c.08,.08,.15,.15,.22,.22,.06,0,.09,.02,.09,.05,0,.02,0,.05-.01,.07v.03c2.12,2.12,4.27,4.24,6.4,6.36,4.86,4.84,9.7,9.7,14.56,14.54,.43,.43,.75,.96,1.28,1.3,.31,.09,.61,.13,.93,.13,42.07,0,84.14,0,126.22,0,.14,0,.27,0,.41,0v-23.24c-48.95,0-97.89,0-146.84,0-.97,0-1.95,0-2.92,0Z"/><path class="cls-27" d="M35.67,67.8c-.32,0-.63-.05-.93-.13,.08,.32-.13,.5-.32,.69-3.86,3.84-7.72,7.68-11.58,11.54-3.55,3.55-7.08,7.11-10.63,10.67-.09,.09-.2,.17-.3,.26-.03,.05-.05,.1-.08,.15,.98,.26,1.97,.16,2.96,.14,.14,0,.28,0,.42,0,44.82,.01,89.63,0,134.45,0,3.94,0,7.88,0,11.83,0,.27,0,.54,.06,.8-.07v-23.24c-.14,0-.27,0-.41,0-42.07,0-84.14,0-126.22,0Z"/><polygon class="cls-20" points="11.91 90.82 11.91 90.82 11.92 90.82 11.92 90.82 11.91 90.82"/><polygon class="cls-20" points="11.92 90.82 11.92 90.81 11.92 90.82 11.92 90.82"/><path class="cls-20" d="M-27.78,130.28c.94-.93,1.86-1.89,2.79-2.83,.91-.91,1.83-1.8,2.74-2.7,.7-.69,1.41-1.39,2.11-2.09,1.01-1.02,2.03-2.04,3.04-3.06,1.33-1.34,2.62-2.72,3.99-4.02,1.36-1.29,2.68-2.61,3.99-3.95,1.31-1.33,2.67-2.62,3.96-3.98,.85-.9,1.74-1.77,2.62-2.64,.58-.57,1.17-1.11,1.72-1.71,.05-.05,.1-.11,.15-.16,.05-.04,.1-.09,.15-.12,.12-.09,.26-.16,.43-.18l.21-.25c.4-.83,1.17-1.34,1.77-1.98,.29-.31,.58-.62,.87-.93,.05-.05,.09-.1,.14-.15,.02-.02,.04-.04,.06-.05,.02-.01,.03-.03,.05-.04,.12-.09,.25-.16,.43-.14h0c0-.08,.02-.14,.05-.18,.02-.03,.05-.06,.1-.08,.03-.01,.07-.02,.11-.02h0c.15-.22,.3-.43,.45-.64,.08-.1,.16-.2,.24-.3,.41-.49,.88-.92,1.49-1.22,.07-.08,.13-.17,.2-.25,.06-.41,.31-.61,.62-.77,.1-.05,.21-.1,.31-.15l.02-.02c.03-.25,.17-.37,.39-.42,.03,0,.06-.01,.09-.02l.14-.15s0-.06,.02-.08c.04-.16,.13-.27,.29-.31,.03,0,.06-.01,.09-.01h0c.6-1.07,1.57-1.81,2.43-2.64,.4-.39,.75-.91,1.34-1.08h0l.08-.15h0c.1-.09,.2-.17,.3-.26,3.54-3.56,7.08-7.12,10.63-10.67,3.85-3.85,7.72-7.69,11.58-11.54,.19-.19,.4-.37,.32-.69-.53-.33-.85-.87-1.28-1.3-4.86-4.84-9.71-9.69-14.56-14.54-2.13-2.13-4.27-4.24-6.41-6.36-.09-.02-.11-.07-.07-.15l-.22-.23h-.06v-.07s-.03-.01-.04-.03c0,0,0-.01-.01-.02h0s0-.02,0-.03c-.07,.01-.1-.02-.08-.08l-.13-.1c-.42-.42-.88-.81-1.22-1.3l-.14-.13c-.26-.1-.4-.33-.55-.54-.61-.6-1.22-1.19-1.83-1.78-.64-.62-1.27-1.24-1.9-1.87-3.73-3.72-7.46-7.46-11.18-11.19-2.17-2.18-4.34-4.36-6.51-6.54-2.27-2.26-4.55-4.53-6.82-6.79-2.98-2.97-5.97-5.94-8.94-8.92-.14-.14-.28-.28-.42-.42-.99-.97-2.01-1.91-2.88-2.99-5.86,0-11.73,0-17.59,0,1.05,1.07,2.08,2.14,3.13,3.21,.35,.35,.7,.71,1.05,1.06,3.92,3.92,7.87,7.82,11.79,11.74,5.53,5.52,11.05,11.05,16.58,16.57,4.73,4.72,9.45,9.44,14.18,14.17,4.47,4.46,8.94,8.93,13.4,13.39,1.62,1.62,3.22,3.25,4.86,4.84,.41,.4,.39,.64,0,1.03-2.56,2.53-5.1,5.08-7.64,7.62-2.62,2.63-5.23,5.27-7.85,7.89-2,2-4.02,3.98-6.02,5.97-2.07,2.06-4.13,4.12-6.19,6.18-2.58,2.57-5.16,5.15-7.73,7.72-3.58,3.59-7.15,7.18-10.73,10.77-2.83,2.83-5.68,5.64-8.52,8.47-3.01,3-6.02,6.01-9.02,9.02-.19,.19-.43,.34-.46,.65H-30.01c.69-.83,1.47-1.57,2.23-2.33Z"/><path class="cls-20" d="M8.14,41.02c-.64-.62-1.27-1.24-1.9-1.87,.63,.63,1.26,1.25,1.9,1.87Z"/><path class="cls-20" d="M12.09,44.98h0Z"/><path class="cls-20" d="M12.2,45.09l.22,.23h0c-.07-.07-.15-.15-.22-.23Z"/><path class="cls-20" d="M12.1,45s.02,.02,.04,.03h0s-.03-.01-.04-.03Z"/><path class="cls-20" d="M11.87,44.77l.13,.1h0l-.13-.1Z"/><path class="cls-20" d="M12.21,90.56c-.09,.09-.2,.17-.3,.26h0c.1-.09,.2-.17,.3-.26Z"/><polygon class="cls-20" points="11.92 90.82 11.92 90.82 11.92 90.82 11.92 90.82 11.92 90.82"/><path class="cls-20" d="M11.92,90.82l-.08,.15h0s.05-.1,.08-.15h0Z"/><polygon class="cls-20" points="11.91 90.82 11.91 90.82 11.92 90.81 11.91 90.82"/><polygon class="cls-20" points="11.92 90.82 11.92 90.81 11.91 90.82 11.92 90.82"/><path class="cls-28" d="M-46.82,131.96c3-3.01,6.01-6.02,9.02-9.02,2.84-2.83,5.69-5.64,8.52-8.47,3.58-3.58,7.15-7.18,10.73-10.77,2.57-2.58,5.15-5.15,7.73-7.72,2.06-2.06,4.13-4.13,6.19-6.18,2-1.99,4.02-3.97,6.02-5.97,2.62-2.62,5.23-5.27,7.85-7.89,2.54-2.55,5.08-5.1,7.64-7.62,.4-.39,.42-.63,0-1.03-1.64-1.6-3.24-3.22-4.86-4.84-4.47-4.46-8.93-8.93-13.4-13.39-4.73-4.72-9.45-9.44-14.18-14.17-5.53-5.52-11.05-11.05-16.58-16.57-3.93-3.92-7.87-7.82-11.79-11.74-.35-.35-.7-.71-1.05-1.06-1.05-1.06-2.09-2.14-3.13-3.21-4.2,0-8.4-.02-12.6-.02-1.58,0-3.16,0-4.74,.01,.91,1.18,2.05,2.16,3.1,3.21,3.39,3.42,6.82,6.82,10.23,10.22,5.79,5.79,11.59,11.58,17.38,17.37,5.75,5.74,11.49,11.49,17.24,17.23,5.64,5.63,11.27,11.27,16.92,16.88,.48,.48,.49,.73-.01,1.22-7.99,7.95-15.95,15.94-23.93,23.91-6.28,6.27-12.56,12.54-18.84,18.81-6.36,6.35-12.72,12.71-19.06,19.07-.78,.78-1.66,1.45-2.27,2.39h17.41c.03-.3,.27-.46,.46-.65Z"/><path class="cls-4" d="M-69.43,119.46c0-.1,0-.2,0-.31,0-5.43,0-10.87-.02-16.3,0-.76,.58-1.13,1-1.54,1.62-1.57,3.12-3.26,4.77-4.8,1.5-1.4,2.95-2.86,4.37-4.34,1.79-1.86,3.65-3.65,5.47-5.46,1.75-1.73,3.46-3.5,5.22-5.22,1.83-1.8,3.63-3.64,5.45-5.46,1.52-1.51,2.95-3.11,4.57-4.52,1.11-.96,1.97-2.17,3.1-3.11,.58-.48,.55-.73,0-1.27-4.82-4.82-9.64-9.63-14.46-14.45-4.19-4.19-8.39-8.38-12.58-12.57-2.16-2.16-4.31-4.32-6.48-6.47-.29-.29-.44-.59-.44-1.01,.02-5.46,.02-10.91,.02-16.37,0-.22,0-.44,0-.66,0-3.17,0-6.34-.01-9.52,0-1.06,0-2.12-.01-3.18,0-.46,.12-.65,.61-.63,1.13,.03,2.26,.02,3.4,.02,1.58,0,3.16-.01,4.74-.01,4.2,0,8.4,.01,12.6,.02,5.86,0,11.73,0,17.59,0,.25,0,.5-.02,.75-.02,64.02,0,128.04,0,192.06,0-.15-.28-.41-.13-.61-.13-76.87,0-153.74,0-230.61-.02-.53,0-.67,.08-.67,.65,.02,43.07,.02,86.15,.02,129.22,0,.18,0,.36,0,.54,0,.14,.1,.04,.14,.07,0-4.21,.02-8.42,.02-12.63,0-.17,0-.35,0-.52Z"/><path class="cls-21" d="M161.49,91.1c-3.94,0-7.88,0-11.83,0-44.82,0-89.63,0-134.45,0-.14,0-.28,0-.42,0-.99,.03-1.98,.12-2.96-.14-.6,.17-.94,.69-1.34,1.08-.85,.83-1.83,1.56-2.43,2.63h.28l.53-.4c.02-.17,.12-.25,.29-.26h0l.14-.13c.02-.16,.1-.26,.27-.27h0l.41-.4c.08-.37,.31-.59,.67-.69,.52-.97,1.08-1.21,2.11-1.13,.95,.08,1.9,.04,2.85,.04,48.67,0,97.34,0,146.01,0,.23,0,.45,0,.68,.01v-.41c-.26,.14-.53,.07-.8,.07Z"/><path class="cls-21" d="M8.34,94.69h0l.53-.42-.53,.42Z"/><path class="cls-21" d="M9.3,93.88l-.14,.13h0l.14-.13Z"/><path class="cls-21" d="M9.98,93.2l-.41,.4h0l.41-.4Z"/><path class="cls-24" d="M15.61,91.42c-.95,0-1.91,.04-2.85-.04-1.03-.09-1.59,.16-2.11,1.13h0c.38-.06,.64-.31,.91-.55,.18-.16,.39-.34,.6-.23,.7,.38,1.42,.1,2.12,.1,49.34,.01,98.68,.01,148.02,.01v-.41c-.23,0-.45-.01-.68-.01-48.67,0-97.34,0-146.01,0Z"/><polygon class="cls-24" points="10.65 92.51 10.65 92.51 10.65 92.51 10.65 92.51"/><path class="cls-18" d="M15.41,44.14c-.32,0-.64-.01-.95,0-1.23,.06-2.5,.35-3.54-.65-.01-.01-.03-.02-.05-.02-.06-.01-.15,0-.21,0h0c.34,.5,.8,.88,1.22,1.3,.15-.28,.42-.23,.66-.23,.97,0,1.95,0,2.92,0,48.95,0,97.89,0,146.84,0v-.41c-.16,0-.32,0-.48,0-48.8,0-97.6,0-146.41,0Z"/><path class="cls-18" d="M10.87,43.47c-.06-.01-.15,0-.21,0h0c.07,0,.15,0,.21,0Z"/><path class="cls-18" d="M10.5,43.14c-.02-.1-.05-.17-.11-.23,0,0-.01-.01-.02-.02h-.01c-.09-.08-.22-.11-.39-.09h0c.15,.21,.29,.43,.55,.54,0-.07,0-.14-.01-.19Z"/><path class="cls-18" d="M10.37,42.89s.01,.01,.02,.02c0,0-.01-.01-.02-.02Z"/><path class="cls-18" d="M10.36,42.88c-.09-.07-.22-.1-.39-.08h0c.17-.02,.3,.01,.39,.08Z"/><path class="cls-21" d="M.58,102.57c.02-.16,.11-.25,.27-.28h0c.06-.24,.14-.46,.42-.53l.58-.53c0-.16,.07-.26,.23-.29h0c.03-.16,.12-.24,.29-.23,.1-.1,.2-.2,.3-.3-.01-.17,.06-.26,.23-.29h0c.04-.37,.45-.49,.54-.81h0c-.18-.02-.32,.05-.43,.14-.02,.01-.03,.03-.05,.04-.02,.02-.04,.03-.06,.05-.05,.05-.09,.1-.14,.15-.29,.31-.58,.62-.87,.93-.61,.64-1.37,1.15-1.77,1.98,.12,0,.23,0,.35,0,.04-.02,.07-.03,.11-.05Z"/><rect class="cls-21" x="2.09" y="100.94" width="0" height="0"/><polygon class="cls-21" points=".86 102.29 .86 102.29 .86 102.29 .86 102.29"/><path class="cls-21" d="M3.44,99.32h0c-.18-.02-.32,.05-.43,.14,.12-.09,.25-.16,.43-.14Z"/><path class="cls-21" d="M2.91,99.55s.04-.04,.06-.05c-.02,.02-.04,.03-.06,.05Z"/><path class="cls-21" d="M4.16,98.92c.29-.33,.41-.84,.93-.94,.18-.24,.37-.47,.61-.65,.08-.06,.16-.12,.25-.17l-.05-.28h0c-.6,.3-1.08,.73-1.49,1.22-.08,.1-.16,.2-.24,.3-.16,.2-.31,.42-.45,.63l.28,.02,.16-.13Z"/><path class="cls-21" d="M5.9,96.87h0c-.6,.3-1.08,.73-1.49,1.22,.41-.49,.88-.92,1.49-1.22Z"/><path class="cls-21" d="M4.17,98.4c.08-.1,.16-.2,.24-.3-.08,.1-.16,.2-.24,.3Z"/><path class="cls-24" d="M5.09,97.98c-.53,.1-.64,.61-.93,.94,.11,0,.2-.03,.28-.07,.35-.16,.48-.54,.65-.88Z"/><path class="cls-24" d="M7.66,95.09l-.14,.15c.01,.09,.03,.19,.04,.28,.44-.1,.72-.37,.78-.83h-.29c0,.26-.13,.4-.4,.4Z"/><path class="cls-24" d="M6.71,96.32c-.2,.1-.41,.2-.61,.3h0l-.2,.25,.05,.28s.09-.04,.13-.07c.3-.17,.52-.41,.66-.74l-.02-.03h0Z"/><path class="cls-24" d="M6.08,97.09c.3-.17,.52-.41,.66-.74h0c-.13,.33-.35,.57-.66,.74Z"/><path class="cls-24" d="M6.09,96.62h0c-.07,.08-.13,.17-.2,.25h0l.2-.25Z"/><path class="cls-24" d="M6.71,96.32h0l.02,.03c.4-.05,.65-.25,.67-.67-.12,0-.24,0-.36,0h0l-.02,.02c.02,.27-.26,.38-.31,.61Z"/><polygon class="cls-24" points="7.05 95.68 7.04 95.68 7.02 95.71 7.05 95.68 7.05 95.68"/><polygon class="cls-24" points="6.71 96.32 6.71 96.32 6.71 96.32 6.71 96.32"/><path class="cls-24" d="M2.91,100.13c.11-.02,.21-.06,.29-.11,.25-.16,.38-.44,.56-.67v-.02l-.03-.02h-.28c-.09,.33-.5,.45-.54,.81Z"/><path class="cls-24" d="M3.2,100.02c.25-.16,.38-.44,.56-.67h0c-.18,.23-.31,.51-.56,.67Z"/><polygon class="cls-24" points="3.45 99.31 3.44 99.32 3.44 99.32 3.45 99.31"/><path class="cls-24" d="M-.06,103.13c.28-.07,.45-.24,.53-.52-.12,0-.23,0-.35,0l-.21,.25,.03,.28Z"/><path class="cls-24" d="M.12,102.61l-.21,.25H-.09l.21-.25Z"/><path class="cls-24" d="M10.65,92.51h0c-.36,.1-.58,.33-.67,.69,.05-.01,.09-.02,.13-.04,.29-.11,.48-.32,.53-.65Z"/><path class="cls-24" d="M10.11,93.16c.29-.11,.48-.32,.53-.65h0c-.06,.33-.24,.54-.53,.65Z"/><polygon class="cls-24" points="10.65 92.51 10.65 92.51 10.65 92.51 10.65 92.51 10.65 92.51"/><polygon class="cls-24" points="10.64 92.51 10.65 92.51 10.65 92.51 10.64 92.51"/><polygon class="cls-24" points="10.65 92.51 10.65 92.51 10.64 92.51 10.65 92.51"/><polygon class="cls-24" points="10.65 92.51 10.65 92.51 10.65 92.51 10.65 92.51"/><polygon class="cls-24" points="10.65 92.51 10.65 92.51 10.65 92.51 10.64 92.51 10.65 92.51"/><path class="cls-24" d="M1.27,101.76c-.28,.07-.36,.29-.42,.53h0c.1,0,.19-.03,.25-.07,.14-.09,.18-.26,.17-.46Z"/><polygon class="cls-24" points=".86 102.29 .86 102.29 .86 102.29 .86 102.29"/><path class="cls-21" d="M7.05,95.68c.12,0,.24,0,.36,0,.05-.05,.11-.1,.16-.16-.01-.09-.03-.19-.04-.28h0s-.06,.01-.09,.02c-.21,.05-.35,.18-.39,.42Z"/><path class="cls-21" d="M7.43,95.26c-.21,.05-.35,.18-.39,.42h0c.03-.25,.17-.37,.39-.42Z"/><path class="cls-21" d="M7.52,95.24c.01,.09,.03,.19,.04,.28-.01-.09-.03-.19-.04-.28h0Z"/><path class="cls-24" d="M3.72,99.32h0v.02l.03,.02c.05-.02,.1-.05,.13-.08,.06-.05,.1-.12,.11-.22l-.28-.02h0v.29h.01Z"/><path class="cls-24" d="M3.72,99.32v0h0Z"/><path class="cls-24" d="M2.68,100.42c.07-.02,.12-.06,.16-.11,.02-.03,.04-.07,.05-.11,0-.02,.01-.04,.01-.07h0c-.17,.02-.24,.12-.23,.29Z"/><path class="cls-24" d="M2.89,100.2s.01-.04,.01-.07h0s0,.05-.01,.07Z"/><path class="cls-24" d="M2.38,100.72c-.16-.01-.26,.07-.29,.23,.04,0,.07,0,.1-.02,.09-.03,.16-.1,.19-.21Z"/><path class="cls-24" d="M1.86,101.23c.09-.03,.15-.08,.19-.14,.01-.03,.03-.06,.03-.09,0-.02,0-.03,0-.05-.16,.03-.24,.12-.23,.29Z"/><path class="cls-24" d="M2.08,101s0-.03,0-.05h0s0,.04,0,.05Z"/><path class="cls-24" d="M2.08,101s-.02,.06-.03,.09c.01-.03,.03-.06,.03-.09Z"/><path class="cls-24" d="M.86,102.29c-.16,.02-.25,.12-.27,.28,.04,0,.08-.01,.11-.03,.1-.04,.15-.13,.16-.25Z"/><path class="cls-24" d="M.7,102.54c.1-.04,.15-.13,.16-.25h0c-.01,.13-.06,.21-.16,.25Z"/><path class="cls-24" d="M9.57,93.6c-.17,.02-.26,.11-.27,.27,.08,0,.14-.04,.19-.08,.04-.05,.07-.11,.08-.19Z"/><path class="cls-24" d="M9.57,93.6h0c-.01,.08-.04,.14-.08,.19,.04-.05,.07-.11,.08-.19Z"/><path class="cls-24" d="M9.1,94.17s.05-.09,.06-.15c-.16,.01-.26,.1-.29,.26,.1,0,.18-.04,.23-.11Z"/><path class="cls-24" d="M9.16,94.01h0c0,.06-.03,.11-.06,.15,.03-.04,.05-.09,.06-.15Z"/><path class="cls-18" d="M12.51,45.36s-.03-.04-.09-.05h0c-.05,.08-.02,.13,.07,.15v-.03s.03-.05,.03-.07Z"/><path class="cls-18" d="M12.51,45.36s-.03-.04-.09-.05h0c.06,0,.09,.02,.09,.05Z"/><polygon class="cls-18" points="12.14 45.03 12.14 45.03 12.14 45.08 12.2 45.09 12.2 45.04 12.14 45.03"/><polygon class="cls-18" points="12.2 45.04 12.14 45.03 12.14 45.03 12.14 45.03 12.2 45.04"/><path class="cls-18" d="M12,44.87c-.01,.07,.01,.1,.08,.08l-.08-.08h0Z"/><polygon class="cls-18" points="12 44.87 12 44.87 12 44.87 12 44.87"/><polygon class="cls-21" points="11.91 90.82 11.91 90.82 11.91 90.82 11.91 90.82"/><polygon class="cls-21" points="11.92 90.81 11.91 90.82 11.91 90.82 11.92 90.81"/><path class="cls-21" d="M6.09,96.62c.2-.1,.41-.2,.61-.3h0c.05-.23,.33-.35,.31-.61-.1,.05-.21,.1-.31,.15-.3,.16-.56,.36-.62,.77Z"/><path class="cls-21" d="M6.71,95.86c-.3,.16-.56,.36-.62,.77h0c.06-.41,.31-.61,.62-.77Z"/><path class="cls-21" d="M6.71,96.32h0c-.2,.1-.41,.2-.61,.3h0c.2-.1,.41-.2,.61-.3h0Z"/><polygon class="cls-21" points="6.09 96.62 6.09 96.62 6.09 96.62 6.09 96.62"/><path class="cls-21" d="M8.06,94.68s-.06,0-.09,.01c-.17,.04-.25,.15-.29,.31,0,.03-.01,.05-.02,.08h0c.27,0,.4-.14,.4-.41Z"/><path class="cls-21" d="M7.68,95.01s-.01,.05-.02,.08h0s0-.06,.02-.08Z"/><path class="cls-21" d="M3.72,99.32v-.28c-.06,0-.09,.01-.13,.02-.04,.02-.07,.04-.1,.08-.03,.04-.05,.1-.05,.17h.27Z"/><path class="cls-21" d="M3.5,99.14s-.05,.1-.05,.17h0c0-.07,.02-.13,.05-.17Z"/></g></g><g class="cls-30"><g><path class="cls-1" d="M1.1,102.22c.14-.09,.18-.26,.17-.46l.58-.53-.58,.53c0,.2-.04,.37-.17,.46Z"/><path class="cls-1" d="M2.19,100.92c.09-.03,.16-.1,.19-.21l.3-.3c-.1,.1-.2,.2-.3,.3-.03,.11-.1,.17-.19,.21Z"/><path class="cls-1" d="M-.06,103.13H-.06c.28-.07,.45-.24,.53-.52,.04-.02,.07-.03,.11-.05-.04,.01-.08,.03-.11,.05-.07,.28-.25,.45-.53,.52Z"/><polygon class="cls-1" points=".86 102.29 .86 102.29 .86 102.29 .86 102.29"/><path class="cls-1" d="M3.88,99.27c.06-.05,.1-.12,.11-.22l.16-.13-.16,.13c-.01,.09-.05,.17-.11,.22Z"/><path class="cls-1" d="M5.09,97.98c-.17,.33-.3,.72-.65,.88,.35-.16,.48-.54,.65-.88,.18-.24,.37-.47,.61-.65-.23,.18-.43,.41-.61,.65Z"/><path class="cls-1" d="M6.74,96.35h0l-.02-.03,.02,.03Z"/><path class="cls-1" d="M10.4,42.91c.06,.06,.09,.13,.11,.23-.02-.1-.05-.17-.11-.23Z"/><polygon class="cls-1" points="2.9 100.13 2.91 100.13 2.9 100.13 2.9 100.13"/><path class="cls-1" d="M3.75,99.35h0v0Z"/><path class="cls-1" d="M3.45,99.31h0Z"/><path class="cls-1" d="M14.8,91.1c-.99,.03-1.98,.12-2.96-.14h0c.98,.26,1.97,.16,2.96,.14Z"/><path class="cls-1" d="M10.52,43.33l.14,.13h0l-.14-.13Z"/><path class="cls-1" d="M10.36,42.88h0Z"/><path class="cls-1" d="M12,44.87l.08,.08-.08-.08h0Z"/><path class="cls-1" d="M8.14,41.02c.61,.59,1.22,1.19,1.83,1.78h0c-.61-.6-1.22-1.19-1.83-1.78Z"/><path class="cls-1" d="M12.5,45.44s.02-.05,.01-.07c0,.02,0,.05-.01,.07Z"/><path class="cls-1" d="M2.89,100.2s-.03,.08-.05,.11c.02-.03,.04-.07,.05-.11Z"/><path class="cls-1" d="M2.19,100.92s-.06,.02-.1,.02c.04,0,.07,0,.1-.02Z"/><path class="cls-1" d="M7.57,95.52c-.05,.05-.11,.11-.16,.16l.16-.16c.44-.1,.72-.37,.78-.83h0c-.06,.46-.33,.73-.78,.83Z"/><path class="cls-1" d="M3.6,99.06s-.07,.04-.1,.08c.02-.03,.05-.06,.1-.08Z"/><path class="cls-1" d="M12.1,45s0-.01-.01-.02c0,0,0,.01,.01,.02Z"/><path class="cls-1" d="M12.09,44.98s0-.02,0-.03c0,0,0,.02,0,.03Z"/><path class="cls-1" d="M7.66,95.09h0l-.14,.15h0l.14-.15Z"/><polygon class="cls-1" points="3.45 99.31 3.45 99.31 3.45 99.31 3.45 99.31"/><path class="cls-1" d="M2.96,99.5s.03-.03,.05-.04c-.02,.01-.03,.03-.05,.04Z"/><path class="cls-1" d="M7.97,94.7c-.17,.04-.25,.15-.29,.31,.04-.16,.13-.27,.29-.31Z"/><path class="cls-10" d="M-9.3,21.32c-.09,0-.18,0-.27,0-.05,0-.09,0-.14,0-.58-.02-1.17-.07-1.75,.11,2.17,2.18,4.34,4.37,6.51,6.54,3.72,3.73,7.45,7.46,11.18,11.19,.63,.63,1.26,1.25,1.9,1.87,.61,.59,1.22,1.19,1.83,1.78,.17-.02,.3,.01,.39,.08h.01s.01,.02,.02,.03c.06,.06,.09,.13,.11,.23,.01,.06,.01,.12,.01,.19l.14,.13c.07,0,.15,0,.21,0,.02,0,.04,.01,.05,.02,1.04,1,2.31,.71,3.54,.65,.32-.02,.63,0,.95,0,48.8,0,97.6,0,146.41,0,.16,0,.32,0,.48,0V21.3c-.36,0-.72,.01-1.09,.01-56.84,0-113.67,0-170.51,0Z"/><path class="cls-22" d="M14.28,91.83c-.7,0-1.42,.28-2.12-.1-.21-.11-.42,.07-.6,.23-.27,.24-.53,.49-.91,.55-.06,.33-.24,.54-.53,.65-.04,.02-.09,.03-.13,.04l-.41,.4c-.01,.08-.04,.14-.08,.19-.04,.05-.11,.07-.19,.08l-.14,.13c0,.06-.03,.11-.06,.15-.05,.07-.13,.1-.23,.11l-.53,.42c-.06,.46-.33,.73-.78,.83l-.16,.16c-.02,.42-.27,.62-.67,.67h0c-.13,.33-.36,.57-.66,.74-.04,.02-.09,.05-.13,.07-.09,.05-.17,.11-.25,.17-.23,.18-.43,.41-.61,.65-.17,.33-.3,.72-.65,.88-.08,.04-.18,.06-.28,.07l-.16,.13c-.01,.09-.05,.17-.11,.22-.04,.03-.08,.06-.13,.08h0c-.18,.23-.31,.51-.56,.67-.08,.05-.18,.09-.29,.11h0s0,.05-.01,.07c-.01,.04-.03,.08-.05,.11-.04,.05-.09,.08-.16,.11l-.3,.3c-.03,.11-.1,.17-.19,.21-.03,.01-.06,.02-.1,.02h0s0,.04,0,.05c0,.03-.02,.06-.03,.09-.04,.07-.1,.12-.19,.14l-.58,.53c0,.2-.04,.37-.17,.46-.06,.04-.14,.07-.25,.07h0c-.01,.13-.06,.21-.16,.25-.03,.01-.07,.02-.11,.03-.04,.01-.08,.03-.11,.05-.07,.28-.25,.45-.53,.52h0l-.19,.18-.1,.1c-.03,.13-.09,.21-.2,.25-.02,0-.03,.01-.05,.01-.98,.74-1.65,1.77-2.5,2.62-1.71,1.7-3.4,3.41-5.1,5.11-1,1-2.06,1.95-2.97,3.04,.26,.11,.53,.09,.8,.09,1.27,0,2.54,0,3.81,0,55.95,0,111.9,0,167.85,0,.34,0,.68,0,1.02,0v-22.7c-49.34,0-98.68,0-148.02-.01Z"/><path class="cls-17" d="M-30.51,2.3h0c.87,1.08,1.89,2.02,2.88,2.99,.14,.14,.28,.28,.42,.42,2.97,2.98,5.96,5.95,8.94,8.92,2.27,2.26,4.55,4.53,6.82,6.79h0c.58-.18,1.16-.13,1.75-.11,.05,0,.09,0,.14,0,.09,0,.18,0,.27,0,56.84,0,113.67,0,170.51,0,.36,0,.72,0,1.09-.01V2.28c-64.02,0-128.04,0-192.06,0-.25,0-.5,.01-.75,.02Z"/><path class="cls-11" d="M162.29,114.53c-.34,0-.68,0-1.02,0-55.95,0-111.9,0-167.85,0-1.27,0-2.54,0-3.81,0-.27,0-.55,.02-.8-.09-.82,.42-1.39,1.14-2.01,1.79-.09,.09-.18,.18-.27,.27-.78,.74-1.52,1.52-2.28,2.28-1.03,1.03-2.05,2.07-3.07,3.11-.97,.98-1.95,1.94-2.92,2.92-1.11,1.11-2.21,2.24-3.32,3.34-1.27,1.26-2.56,2.51-3.84,3.77-.19,.18-.43,.36-.29,.69H62.85c32.95,0,65.89,0,98.84,.01,.52,0,.62-.14,.62-.63-.02-5.82-.01-11.64-.01-17.46Z"/><path class="cls-7" d="M12.53,44.54c-.24,0-.51-.06-.66,.23l.13,.1h0l.08,.08s0,.02,0,.03h0s0,.01,.01,.02c0,.01,.02,.02,.04,.03h.05v.07c.08,.08,.15,.15,.22,.22,.06,0,.09,.02,.09,.05,0,.02,0,.05-.01,.07v.03c2.12,2.12,4.27,4.24,6.4,6.36,4.86,4.84,9.7,9.7,14.56,14.54,.43,.43,.75,.96,1.28,1.3,.31,.09,.61,.13,.93,.13,42.07,0,84.14,0,126.22,0,.14,0,.27,0,.41,0v-23.24c-48.95,0-97.89,0-146.84,0-.97,0-1.95,0-2.92,0Z"/><path class="cls-27" d="M35.67,67.8c-.32,0-.63-.05-.93-.13,.08,.32-.13,.5-.32,.69-3.86,3.84-7.72,7.68-11.58,11.54-3.55,3.55-7.08,7.11-10.63,10.67-.09,.09-.2,.17-.3,.26-.03,.05-.05,.1-.08,.15,.98,.26,1.97,.16,2.96,.14,.14,0,.28,0,.42,0,44.82,.01,89.63,0,134.45,0,3.94,0,7.88,0,11.83,0,.27,0,.54,.06,.8-.07v-23.24c-.14,0-.27,0-.41,0-42.07,0-84.14,0-126.22,0Z"/><polygon class="cls-20" points="11.91 90.82 11.91 90.82 11.92 90.82 11.92 90.82 11.91 90.82"/><polygon class="cls-20" points="11.92 90.82 11.92 90.81 11.92 90.82 11.92 90.82"/><path class="cls-20" d="M-27.78,130.28c.94-.93,1.86-1.89,2.79-2.83,.91-.91,1.83-1.8,2.74-2.7,.7-.69,1.41-1.39,2.11-2.09,1.01-1.02,2.03-2.04,3.04-3.06,1.33-1.34,2.62-2.72,3.99-4.02,1.36-1.29,2.68-2.61,3.99-3.95,1.31-1.33,2.67-2.62,3.96-3.98,.85-.9,1.74-1.77,2.62-2.64,.58-.57,1.17-1.11,1.72-1.71,.05-.05,.1-.11,.15-.16,.05-.04,.1-.09,.15-.12,.12-.09,.26-.16,.43-.18l.21-.25c.4-.83,1.17-1.34,1.77-1.98,.29-.31,.58-.62,.87-.93,.05-.05,.09-.1,.14-.15,.02-.02,.04-.04,.06-.05,.02-.01,.03-.03,.05-.04,.12-.09,.25-.16,.43-.14h0c0-.08,.02-.14,.05-.18,.02-.03,.05-.06,.1-.08,.03-.01,.07-.02,.11-.02h0c.15-.22,.3-.43,.45-.64,.08-.1,.16-.2,.24-.3,.41-.49,.88-.92,1.49-1.22,.07-.08,.13-.17,.2-.25,.06-.41,.31-.61,.62-.77,.1-.05,.21-.1,.31-.15l.02-.02c.03-.25,.17-.37,.39-.42,.03,0,.06-.01,.09-.02l.14-.15s0-.06,.02-.08c.04-.16,.13-.27,.29-.31,.03,0,.06-.01,.09-.01h0c.6-1.07,1.57-1.81,2.43-2.64,.4-.39,.75-.91,1.34-1.08h0l.08-.15h0c.1-.09,.2-.17,.3-.26,3.54-3.56,7.08-7.12,10.63-10.67,3.85-3.85,7.72-7.69,11.58-11.54,.19-.19,.4-.37,.32-.69-.53-.33-.85-.87-1.28-1.3-4.86-4.84-9.71-9.69-14.56-14.54-2.13-2.13-4.27-4.24-6.41-6.36-.09-.02-.11-.07-.07-.15l-.22-.23h-.06v-.07s-.03-.01-.04-.03c0,0,0-.01-.01-.02h0s0-.02,0-.03c-.07,.01-.1-.02-.08-.08l-.13-.1c-.42-.42-.88-.81-1.22-1.3l-.14-.13c-.26-.1-.4-.33-.55-.54-.61-.6-1.22-1.19-1.83-1.78-.64-.62-1.27-1.24-1.9-1.87-3.73-3.72-7.46-7.46-11.18-11.19-2.17-2.18-4.34-4.36-6.51-6.54-2.27-2.26-4.55-4.53-6.82-6.79-2.98-2.97-5.97-5.94-8.94-8.92-.14-.14-.28-.28-.42-.42-.99-.97-2.01-1.91-2.88-2.99-5.86,0-11.73,0-17.59,0,1.05,1.07,2.08,2.14,3.13,3.21,.35,.35,.7,.71,1.05,1.06,3.92,3.92,7.87,7.82,11.79,11.74,5.53,5.52,11.05,11.05,16.58,16.57,4.73,4.72,9.45,9.44,14.18,14.17,4.47,4.46,8.94,8.93,13.4,13.39,1.62,1.62,3.22,3.25,4.86,4.84,.41,.4,.39,.64,0,1.03-2.56,2.53-5.1,5.08-7.64,7.62-2.62,2.63-5.23,5.27-7.85,7.89-2,2-4.02,3.98-6.02,5.97-2.07,2.06-4.13,4.12-6.19,6.18-2.58,2.57-5.16,5.15-7.73,7.72-3.58,3.59-7.15,7.18-10.73,10.77-2.83,2.83-5.68,5.64-8.52,8.47-3.01,3-6.02,6.01-9.02,9.02-.19,.19-.43,.34-.46,.65H-30.01c.69-.83,1.47-1.57,2.23-2.33Z"/><path class="cls-20" d="M8.14,41.02c-.64-.62-1.27-1.24-1.9-1.87,.63,.63,1.26,1.25,1.9,1.87Z"/><path class="cls-20" d="M12.09,44.98h0Z"/><path class="cls-20" d="M12.2,45.09l.22,.23h0c-.07-.07-.15-.15-.22-.23Z"/><path class="cls-20" d="M12.1,45s.02,.02,.04,.03h0s-.03-.01-.04-.03Z"/><path class="cls-20" d="M11.87,44.77l.13,.1h0l-.13-.1Z"/><path class="cls-20" d="M12.21,90.56c-.09,.09-.2,.17-.3,.26h0c.1-.09,.2-.17,.3-.26Z"/><polygon class="cls-20" points="11.92 90.82 11.92 90.82 11.92 90.82 11.92 90.82 11.92 90.82"/><path class="cls-20" d="M11.92,90.82l-.08,.15h0s.05-.1,.08-.15h0Z"/><polygon class="cls-20" points="11.91 90.82 11.91 90.82 11.92 90.81 11.91 90.82"/><polygon class="cls-20" points="11.92 90.82 11.92 90.81 11.91 90.82 11.92 90.82"/><path class="cls-28" d="M-46.82,131.96c3-3.01,6.01-6.02,9.02-9.02,2.84-2.83,5.69-5.64,8.52-8.47,3.58-3.58,7.15-7.18,10.73-10.77,2.57-2.58,5.15-5.15,7.73-7.72,2.06-2.06,4.13-4.13,6.19-6.18,2-1.99,4.02-3.97,6.02-5.97,2.62-2.62,5.23-5.27,7.85-7.89,2.54-2.55,5.08-5.1,7.64-7.62,.4-.39,.42-.63,0-1.03-1.64-1.6-3.24-3.22-4.86-4.84-4.47-4.46-8.93-8.93-13.4-13.39-4.73-4.72-9.45-9.44-14.18-14.17-5.53-5.52-11.05-11.05-16.58-16.57-3.93-3.92-7.87-7.82-11.79-11.74-.35-.35-.7-.71-1.05-1.06-1.05-1.06-2.09-2.14-3.13-3.21-4.2,0-8.4-.02-12.6-.02-1.58,0-3.16,0-4.74,.01,.91,1.18,2.05,2.16,3.1,3.21,3.39,3.42,6.82,6.82,10.23,10.22,5.79,5.79,11.59,11.58,17.38,17.37,5.75,5.74,11.49,11.49,17.24,17.23,5.64,5.63,11.27,11.27,16.92,16.88,.48,.48,.49,.73-.01,1.22-7.99,7.95-15.95,15.94-23.93,23.91-6.28,6.27-12.56,12.54-18.84,18.81-6.36,6.35-12.72,12.71-19.06,19.07-.78,.78-1.66,1.45-2.27,2.39h17.41c.03-.3,.27-.46,.46-.65Z"/><path class="cls-4" d="M-69.43,119.46c0-.1,0-.2,0-.31,0-5.43,0-10.87-.02-16.3,0-.76,.58-1.13,1-1.54,1.62-1.57,3.12-3.26,4.77-4.8,1.5-1.4,2.95-2.86,4.37-4.34,1.79-1.86,3.65-3.65,5.47-5.46,1.75-1.73,3.46-3.5,5.22-5.22,1.83-1.8,3.63-3.64,5.45-5.46,1.52-1.51,2.95-3.11,4.57-4.52,1.11-.96,1.97-2.17,3.1-3.11,.58-.48,.55-.73,0-1.27-4.82-4.82-9.64-9.63-14.46-14.45-4.19-4.19-8.39-8.38-12.58-12.57-2.16-2.16-4.31-4.32-6.48-6.47-.29-.29-.44-.59-.44-1.01,.02-5.46,.02-10.91,.02-16.37,0-.22,0-.44,0-.66,0-3.17,0-6.34-.01-9.52,0-1.06,0-2.12-.01-3.18,0-.46,.12-.65,.61-.63,1.13,.03,2.26,.02,3.4,.02,1.58,0,3.16-.01,4.74-.01,4.2,0,8.4,.01,12.6,.02,5.86,0,11.73,0,17.59,0,.25,0,.5-.02,.75-.02,64.02,0,128.04,0,192.06,0-.15-.28-.41-.13-.61-.13-76.87,0-153.74,0-230.61-.02-.53,0-.67,.08-.67,.65,.02,43.07,.02,86.15,.02,129.22,0,.18,0,.36,0,.54,0,.14,.1,.04,.14,.07,0-4.21,.02-8.42,.02-12.63,0-.17,0-.35,0-.52Z"/><path class="cls-21" d="M161.49,91.1c-3.94,0-7.88,0-11.83,0-44.82,0-89.63,0-134.45,0-.14,0-.28,0-.42,0-.99,.03-1.98,.12-2.96-.14-.6,.17-.94,.69-1.34,1.08-.85,.83-1.83,1.56-2.43,2.63h.28l.53-.4c.02-.17,.12-.25,.29-.26h0l.14-.13c.02-.16,.1-.26,.27-.27h0l.41-.4c.08-.37,.31-.59,.67-.69,.52-.97,1.08-1.21,2.11-1.13,.95,.08,1.9,.04,2.85,.04,48.67,0,97.34,0,146.01,0,.23,0,.45,0,.68,.01v-.41c-.26,.14-.53,.07-.8,.07Z"/><path class="cls-21" d="M8.34,94.69h0l.53-.42-.53,.42Z"/><path class="cls-21" d="M9.3,93.88l-.14,.13h0l.14-.13Z"/><path class="cls-21" d="M9.98,93.2l-.41,.4h0l.41-.4Z"/><path class="cls-24" d="M15.61,91.42c-.95,0-1.91,.04-2.85-.04-1.03-.09-1.59,.16-2.11,1.13h0c.38-.06,.64-.31,.91-.55,.18-.16,.39-.34,.6-.23,.7,.38,1.42,.1,2.12,.1,49.34,.01,98.68,.01,148.02,.01v-.41c-.23,0-.45-.01-.68-.01-48.67,0-97.34,0-146.01,0Z"/><polygon class="cls-24" points="10.65 92.51 10.65 92.51 10.65 92.51 10.65 92.51"/><path class="cls-18" d="M15.41,44.14c-.32,0-.64-.01-.95,0-1.23,.06-2.5,.35-3.54-.65-.01-.01-.03-.02-.05-.02-.06-.01-.15,0-.21,0h0c.34,.5,.8,.88,1.22,1.3,.15-.28,.42-.23,.66-.23,.97,0,1.95,0,2.92,0,48.95,0,97.89,0,146.84,0v-.41c-.16,0-.32,0-.48,0-48.8,0-97.6,0-146.41,0Z"/><path class="cls-18" d="M10.87,43.47c-.06-.01-.15,0-.21,0h0c.07,0,.15,0,.21,0Z"/><path class="cls-18" d="M10.5,43.14c-.02-.1-.05-.17-.11-.23,0,0-.01-.01-.02-.02h-.01c-.09-.08-.22-.11-.39-.09h0c.15,.21,.29,.43,.55,.54,0-.07,0-.14-.01-.19Z"/><path class="cls-18" d="M10.37,42.89s.01,.01,.02,.02c0,0-.01-.01-.02-.02Z"/><path class="cls-18" d="M10.36,42.88c-.09-.07-.22-.1-.39-.08h0c.17-.02,.3,.01,.39,.08Z"/><path class="cls-21" d="M.58,102.57c.02-.16,.11-.25,.27-.28h0c.06-.24,.14-.46,.42-.53l.58-.53c0-.16,.07-.26,.23-.29h0c.03-.16,.12-.24,.29-.23,.1-.1,.2-.2,.3-.3-.01-.17,.06-.26,.23-.29h0c.04-.37,.45-.49,.54-.81h0c-.18-.02-.32,.05-.43,.14-.02,.01-.03,.03-.05,.04-.02,.02-.04,.03-.06,.05-.05,.05-.09,.1-.14,.15-.29,.31-.58,.62-.87,.93-.61,.64-1.37,1.15-1.77,1.98,.12,0,.23,0,.35,0,.04-.02,.07-.03,.11-.05Z"/><rect class="cls-21" x="2.09" y="100.94" width="0" height="0"/><polygon class="cls-21" points=".86 102.29 .86 102.29 .86 102.29 .86 102.29"/><path class="cls-21" d="M3.44,99.32h0c-.18-.02-.32,.05-.43,.14,.12-.09,.25-.16,.43-.14Z"/><path class="cls-21" d="M2.91,99.55s.04-.04,.06-.05c-.02,.02-.04,.03-.06,.05Z"/><path class="cls-21" d="M4.16,98.92c.29-.33,.41-.84,.93-.94,.18-.24,.37-.47,.61-.65,.08-.06,.16-.12,.25-.17l-.05-.28h0c-.6,.3-1.08,.73-1.49,1.22-.08,.1-.16,.2-.24,.3-.16,.2-.31,.42-.45,.63l.28,.02,.16-.13Z"/><path class="cls-21" d="M5.9,96.87h0c-.6,.3-1.08,.73-1.49,1.22,.41-.49,.88-.92,1.49-1.22Z"/><path class="cls-21" d="M4.17,98.4c.08-.1,.16-.2,.24-.3-.08,.1-.16,.2-.24,.3Z"/><path class="cls-24" d="M5.09,97.98c-.53,.1-.64,.61-.93,.94,.11,0,.2-.03,.28-.07,.35-.16,.48-.54,.65-.88Z"/><path class="cls-24" d="M7.66,95.09l-.14,.15c.01,.09,.03,.19,.04,.28,.44-.1,.72-.37,.78-.83h-.29c0,.26-.13,.4-.4,.4Z"/><path class="cls-24" d="M6.71,96.32c-.2,.1-.41,.2-.61,.3h0l-.2,.25,.05,.28s.09-.04,.13-.07c.3-.17,.52-.41,.66-.74l-.02-.03h0Z"/><path class="cls-24" d="M6.08,97.09c.3-.17,.52-.41,.66-.74h0c-.13,.33-.35,.57-.66,.74Z"/><path class="cls-24" d="M6.09,96.62h0c-.07,.08-.13,.17-.2,.25h0l.2-.25Z"/><path class="cls-24" d="M6.71,96.32h0l.02,.03c.4-.05,.65-.25,.67-.67-.12,0-.24,0-.36,0h0l-.02,.02c.02,.27-.26,.38-.31,.61Z"/><polygon class="cls-24" points="7.05 95.68 7.04 95.68 7.02 95.71 7.05 95.68 7.05 95.68"/><polygon class="cls-24" points="6.71 96.32 6.71 96.32 6.71 96.32 6.71 96.32"/><path class="cls-24" d="M2.91,100.13c.11-.02,.21-.06,.29-.11,.25-.16,.38-.44,.56-.67v-.02l-.03-.02h-.28c-.09,.33-.5,.45-.54,.81Z"/><path class="cls-24" d="M3.2,100.02c.25-.16,.38-.44,.56-.67h0c-.18,.23-.31,.51-.56,.67Z"/><polygon class="cls-24" points="3.45 99.31 3.44 99.32 3.44 99.32 3.45 99.31"/><path class="cls-24" d="M-.06,103.13c.28-.07,.45-.24,.53-.52-.12,0-.23,0-.35,0l-.21,.25,.03,.28Z"/><path class="cls-24" d="M.12,102.61l-.21,.25H-.09l.21-.25Z"/><path class="cls-24" d="M10.65,92.51h0c-.36,.1-.58,.33-.67,.69,.05-.01,.09-.02,.13-.04,.29-.11,.48-.32,.53-.65Z"/><path class="cls-24" d="M10.11,93.16c.29-.11,.48-.32,.53-.65h0c-.06,.33-.24,.54-.53,.65Z"/><polygon class="cls-24" points="10.65 92.51 10.65 92.51 10.65 92.51 10.65 92.51 10.65 92.51"/><polygon class="cls-24" points="10.64 92.51 10.65 92.51 10.65 92.51 10.64 92.51"/><polygon class="cls-24" points="10.65 92.51 10.65 92.51 10.64 92.51 10.65 92.51"/><polygon class="cls-24" points="10.65 92.51 10.65 92.51 10.65 92.51 10.65 92.51"/><polygon class="cls-24" points="10.65 92.51 10.65 92.51 10.65 92.51 10.64 92.51 10.65 92.51"/><path class="cls-24" d="M1.27,101.76c-.28,.07-.36,.29-.42,.53h0c.1,0,.19-.03,.25-.07,.14-.09,.18-.26,.17-.46Z"/><polygon class="cls-24" points=".86 102.29 .86 102.29 .86 102.29 .86 102.29"/><path class="cls-21" d="M7.05,95.68c.12,0,.24,0,.36,0,.05-.05,.11-.1,.16-.16-.01-.09-.03-.19-.04-.28h0s-.06,.01-.09,.02c-.21,.05-.35,.18-.39,.42Z"/><path class="cls-21" d="M7.43,95.26c-.21,.05-.35,.18-.39,.42h0c.03-.25,.17-.37,.39-.42Z"/><path class="cls-21" d="M7.52,95.24c.01,.09,.03,.19,.04,.28-.01-.09-.03-.19-.04-.28h0Z"/><path class="cls-24" d="M3.72,99.32h0v.02l.03,.02c.05-.02,.1-.05,.13-.08,.06-.05,.1-.12,.11-.22l-.28-.02h0v.29h.01Z"/><path class="cls-24" d="M3.72,99.32v0h0Z"/><path class="cls-24" d="M2.68,100.42c.07-.02,.12-.06,.16-.11,.02-.03,.04-.07,.05-.11,0-.02,.01-.04,.01-.07h0c-.17,.02-.24,.12-.23,.29Z"/><path class="cls-24" d="M2.89,100.2s.01-.04,.01-.07h0s0,.05-.01,.07Z"/><path class="cls-24" d="M2.38,100.72c-.16-.01-.26,.07-.29,.23,.04,0,.07,0,.1-.02,.09-.03,.16-.1,.19-.21Z"/><path class="cls-24" d="M1.86,101.23c.09-.03,.15-.08,.19-.14,.01-.03,.03-.06,.03-.09,0-.02,0-.03,0-.05-.16,.03-.24,.12-.23,.29Z"/><path class="cls-24" d="M2.08,101s0-.03,0-.05h0s0,.04,0,.05Z"/><path class="cls-24" d="M2.08,101s-.02,.06-.03,.09c.01-.03,.03-.06,.03-.09Z"/><path class="cls-24" d="M.86,102.29c-.16,.02-.25,.12-.27,.28,.04,0,.08-.01,.11-.03,.1-.04,.15-.13,.16-.25Z"/><path class="cls-24" d="M.7,102.54c.1-.04,.15-.13,.16-.25h0c-.01,.13-.06,.21-.16,.25Z"/><path class="cls-24" d="M9.57,93.6c-.17,.02-.26,.11-.27,.27,.08,0,.14-.04,.19-.08,.04-.05,.07-.11,.08-.19Z"/><path class="cls-24" d="M9.57,93.6h0c-.01,.08-.04,.14-.08,.19,.04-.05,.07-.11,.08-.19Z"/><path class="cls-24" d="M9.1,94.17s.05-.09,.06-.15c-.16,.01-.26,.1-.29,.26,.1,0,.18-.04,.23-.11Z"/><path class="cls-24" d="M9.16,94.01h0c0,.06-.03,.11-.06,.15,.03-.04,.05-.09,.06-.15Z"/><path class="cls-18" d="M12.51,45.36s-.03-.04-.09-.05h0c-.05,.08-.02,.13,.07,.15v-.03s.03-.05,.03-.07Z"/><path class="cls-18" d="M12.51,45.36s-.03-.04-.09-.05h0c.06,0,.09,.02,.09,.05Z"/><polygon class="cls-18" points="12.14 45.03 12.14 45.03 12.14 45.08 12.2 45.09 12.2 45.04 12.14 45.03"/><polygon class="cls-18" points="12.2 45.04 12.14 45.03 12.14 45.03 12.14 45.03 12.2 45.04"/><path class="cls-18" d="M12,44.87c-.01,.07,.01,.1,.08,.08l-.08-.08h0Z"/><polygon class="cls-18" points="12 44.87 12 44.87 12 44.87 12 44.87"/><polygon class="cls-21" points="11.91 90.82 11.91 90.82 11.91 90.82 11.91 90.82"/><polygon class="cls-21" points="11.92 90.81 11.91 90.82 11.91 90.82 11.92 90.81"/><path class="cls-21" d="M6.09,96.62c.2-.1,.41-.2,.61-.3h0c.05-.23,.33-.35,.31-.61-.1,.05-.21,.1-.31,.15-.3,.16-.56,.36-.62,.77Z"/><path class="cls-21" d="M6.71,95.86c-.3,.16-.56,.36-.62,.77h0c.06-.41,.31-.61,.62-.77Z"/><path class="cls-21" d="M6.71,96.32h0c-.2,.1-.41,.2-.61,.3h0c.2-.1,.41-.2,.61-.3h0Z"/><polygon class="cls-21" points="6.09 96.62 6.09 96.62 6.09 96.62 6.09 96.62"/><path class="cls-21" d="M8.06,94.68s-.06,0-.09,.01c-.17,.04-.25,.15-.29,.31,0,.03-.01,.05-.02,.08h0c.27,0,.4-.14,.4-.41Z"/><path class="cls-21" d="M7.68,95.01s-.01,.05-.02,.08h0s0-.06,.02-.08Z"/><path class="cls-21" d="M3.72,99.32v-.28c-.06,0-.09,.01-.13,.02-.04,.02-.07,.04-.1,.08-.03,.04-.05,.1-.05,.17h.27Z"/><path class="cls-21" d="M3.5,99.14s-.05,.1-.05,.17h0c0-.07,.02-.13,.05-.17Z"/></g></g></svg>