<?xml version="1.0" encoding="UTF-8"?><svg id="Layer_1" xmlns="http://www.w3.org/2000/svg" viewBox="0 0 505.98 223.62"><defs><style>.cls-1{fill:#ed2524;}.cls-2{fill:#fbaf17;}.cls-3{fill:#dfe21c;}.cls-4{fill:#732a84;}.cls-5{fill:#2db24a;}</style></defs><path class="cls-4" d="M403.7,227.25c-1.79-73.9-69.43-133.32-152.62-133.32S100.25,153.36,98.46,227.25H403.7Z"/><path class="cls-5" d="M398.05,227.55c-.83-34.26-16.46-66.68-44.01-91.29-28.05-25.06-64.98-38.85-103.99-38.85-79.91,0-146.32,58.09-148.05,129.5l-24.33-.59c.5-20.74,5.48-40.88,14.8-59.85,8.97-18.26,21.55-34.65,37.38-48.7,32.48-28.82,75.16-44.69,120.19-44.69,92.97,0,170.27,69.03,172.32,153.89l-24.33,.59Z"/><path class="cls-3" d="M422.39,227.54c-2.02-84.51-79.51-153.27-172.74-153.27-45.42,0-88.14,16.07-120.3,45.25-31.66,28.73-49.64,66.94-50.61,107.59l-24.33-.58c.57-23.91,6.14-47.09,16.54-68.88,10.06-21.08,24.21-39.97,42.04-56.14,36.65-33.25,85.18-51.56,136.65-51.56s100.37,18.37,137.52,51.74c18.09,16.24,32.45,35.17,42.68,56.27,10.62,21.88,16.29,45.11,16.86,69.02l-24.33,.58Z"/><path class="cls-2" d="M56.33,227.54l-24.33-.58C34.6,118.26,133.32,29.82,252.07,29.82c57.33,0,111.68,20.51,153.03,57.74,20.11,18.1,36.07,39.19,47.44,62.67,11.79,24.35,18.1,50.16,18.73,76.73l-24.33,.58c-2.28-95.61-89.71-173.39-194.88-173.39-51.37,0-100.1,18.29-137.21,51.51-17.88,16-32.04,34.58-42.11,55.2-10.35,21.2-15.87,43.63-16.42,66.67Z"/><path class="cls-1" d="M470.87,227.54c-1.23-51.49-24.44-99.94-65.36-136.41-41.36-36.87-95.96-57.17-153.76-57.17s-112.46,20.11-153.68,56.63c-40.83,36.17-63.99,84.4-65.22,135.82l-24.33-.58c.7-29.47,7.69-57.99,20.76-84.76,12.6-25.8,30.32-48.92,52.65-68.7C127.61,31.91,187.92,9.63,251.75,9.63s124.13,22.49,169.95,63.34c22.34,19.92,40.07,43.16,52.7,69.07,13.09,26.88,20.09,55.45,20.79,84.92l-24.33,.58Z"/></svg>